{
    "asset" : {
        "generator" : "Khronos glTF Blender I/O v1.5.17",
        "version" : "2.0"
    },
    "scene" : 0,
    "scenes" : [
        {
            "name" : "Scene",
            "nodes" : [
                0
            ]
        }
    ],
    "nodes" : [
        {
            "mesh" : 0,
            "name" : "flower",
            "rotation" : [
                0.062094226479530334,
                0.5903709530830383,
                -0.026510018855333328,
                0.8043032288551331
            ],
            "translation" : [
                -0.019659455865621567,
                0.04634638875722885,
                0.047614939510822296
            ]
        }
    ],
    "materials" : [
        {
            "doubleSided" : true,
            "name" : "Material.001",
            "pbrMetallicRoughness" : {
                "baseColorFactor" : [
                    0.10294341295957565,
                    0.8000000715255737,
                    0.5103522539138794,
                    1
                ],
                "metallicFactor" : 0,
                "roughnessFactor" : 0.5
            }
        }
    ],
    "meshes" : [
        {
            "name" : "Plane.006",
            "primitives" : [
                {
                    "attributes" : {
                        "POSITION" : 0,
                        "NORMAL" : 1,
                        "TEXCOORD_0" : 2
                    },
                    "indices" : 3,
                    "material" : 0
                }
            ]
        }
    ],
    "accessors" : [
        {
            "bufferView" : 0,
            "componentType" : 5126,
            "count" : 1650,
            "max" : [
                4.53667688369751,
                2.880187749862671,
                4.073281764984131
            ],
            "min" : [
                -3.992769718170166,
                -6.70435094833374,
                -4.943561553955078
            ],
            "type" : "VEC3"
        },
        {
            "bufferView" : 1,
            "componentType" : 5126,
            "count" : 1650,
            "type" : "VEC3"
        },
        {
            "bufferView" : 2,
            "componentType" : 5126,
            "count" : 1650,
            "type" : "VEC2"
        },
        {
            "bufferView" : 3,
            "componentType" : 5123,
            "count" : 9294,
            "type" : "SCALAR"
        }
    ],
    "bufferViews" : [
        {
            "buffer" : 0,
            "byteLength" : 19800,
            "byteOffset" : 0
        },
        {
            "buffer" : 0,
            "byteLength" : 19800,
            "byteOffset" : 19800
        },
        {
            "buffer" : 0,
            "byteLength" : 13200,
            "byteOffset" : 39600
        },
        {
            "buffer" : 0,
            "byteLength" : 18588,
            "byteOffset" : 52800
        }
    ],
    "buffers" : [
        {
            "byteLength" : 71388,
            "uri" : "data:application/octet-stream;base64,"
        }
    ]
}
