{
    "asset" : {
        "generator" : "Khronos glTF Blender I/O v1.1.46",
        "version" : "2.0"
    },
    "scene" : 0,
    "scenes" : [
        {
            "name" : "Scene",
            "nodes" : [
                0,
                1,
                2,
                3,
                4,
                5,
                6,
                7
            ]
        }
    ],
    "nodes" : [
        {
            "name" : "Light",
            "rotation" : [
                0.16907575726509094,
                0.7558803558349609,
                -0.27217137813568115,
                0.570947527885437
            ],
            "translation" : [
                4.076245307922363,
                5.903861999511719,
                -1.0054539442062378
            ]
        },
        {
            "name" : "Camera",
            "rotation" : [
                0.5,
                0.5,
                -0.5,
                0.4999999701976776
            ],
            "translation" : [
                1.7599999904632568,
                0,
                0.25999999046325684
            ]
        },
        {
            "mesh" : 0,
            "name" : "Cube",
            "scale" : [
                0.6000000238418579,
                1,
                1.5399999618530273
            ]
        },
        {
            "mesh" : 1,
            "name" : "Cube.001",
            "scale" : [
                -0.15090548992156982,
                -0.8509054183959961,
                -0.21090549230575562
            ],
            "translation" : [
                0.5902805328369141,
                0,
                -1.2293766736984253
            ]
        },
        {
            "mesh" : 2,
            "name" : "Cylinder",
            "rotation" : [
                0,
                0,
                -0.7071067690849304,
                0.7071067690849304
            ],
            "scale" : [
                0.12830817699432373,
                0.12830817699432373,
                0.12830817699432373
            ],
            "translation" : [
                0.6735072135925293,
                -0.6009474992752075,
                -1.23225998878479
            ]
        },
        {
            "mesh" : 3,
            "name" : "Cylinder.001",
            "rotation" : [
                0,
                0,
                -0.7071067690849304,
                0.7071067690849304
            ],
            "scale" : [
                0.12830817699432373,
                0.12830817699432373,
                0.12830817699432373
            ],
            "translation" : [
                0.6735072135925293,
                -0.18477550148963928,
                -1.23225998878479
            ]
        },
        {
            "mesh" : 4,
            "name" : "Cube.002",
            "scale" : [
                -0.09508982300758362,
                -0.3761795461177826,
                0.16710245609283447
            ],
            "translation" : [
                0.7018730044364929,
                0.39687812328338623,
                -1.2293766736984253
            ]
        },
        {
            "mesh" : 5,
            "name" : "startrekwelcome",
            "rotation" : [
                0.5,
                0.5,
                -0.5,
                0.4999999701976776
            ],
            "scale" : [
                1.5843636989593506,
                1.5843636989593506,
                1.7273544073104858
            ],
            "translation" : [
                0.5614780783653259,
                0,
                0.27317193150520325
            ]
        }
    ],
    "materials" : [
        {
            "doubleSided" : true,
            "emissiveFactor" : [
                0,
                0,
                0
            ],
            "name" : "base",
            "pbrMetallicRoughness" : {
                "baseColorFactor" : [
                    0.13286228477954865,
                    0.10012228041887283,
                    0.1096092164516449,
                    1
                ],
                "metallicFactor" : 0.807692289352417,
                "roughnessFactor" : 0
            }
        },
        {
            "doubleSided" : true,
            "emissiveFactor" : [
                0,
                0,
                0
            ],
            "name" : "Material.001",
            "pbrMetallicRoughness" : {
                "baseColorFactor" : [
                    0,
                    0,
                    0,
                    1
                ],
                "metallicFactor" : 0.692307710647583,
                "roughnessFactor" : 0.5
            }
        },
        {
            "doubleSided" : true,
            "emissiveFactor" : [
                0,
                0,
                0
            ],
            "name" : "Material.002",
            "pbrMetallicRoughness" : {
                "baseColorFactor" : [
                    0.04955054074525833,
                    0.04955054074525833,
                    0.04955054074525833,
                    1
                ],
                "metallicFactor" : 1,
                "roughnessFactor" : 0.4871794879436493
            }
        },
        {
            "doubleSided" : true,
            "emissiveFactor" : [
                0,
                0,
                0
            ],
            "name" : "Material.003",
            "pbrMetallicRoughness" : {
                "baseColorFactor" : [
                    0.0985058918595314,
                    0.0985058918595314,
                    0.0985058918595314,
                    1
                ],
                "metallicFactor" : 1,
                "roughnessFactor" : 0
            }
        },
        {
            "doubleSided" : true,
            "emissiveFactor" : [
                0,
                0,
                0
            ],
            "name" : "Material.005",
            "pbrMetallicRoughness" : {
                "baseColorFactor" : [
                    0.09850580245256424,
                    0.09850580245256424,
                    0.09850580245256424,
                    1
                ],
                "metallicFactor" : 1,
                "roughnessFactor" : 0
            }
        },
        {
            "alphaMode" : "BLEND",
            "doubleSided" : true,
            "emissiveFactor" : [
                1,
                1,
                1
            ],
            "emissiveTexture" : {
                "index" : 0,
                "texCoord" : 0
            },
            "name" : "startrekwelcome",
            "pbrMetallicRoughness" : {}
        }
    ],
    "meshes" : [
        {
            "name" : "Cube.001",
            "primitives" : [
                {
                    "attributes" : {
                        "POSITION" : 0,
                        "NORMAL" : 1,
                        "TEXCOORD_0" : 2
                    },
                    "indices" : 3,
                    "material" : 0
                },
                {
                    "attributes" : {
                        "POSITION" : 4,
                        "NORMAL" : 5,
                        "TEXCOORD_0" : 6
                    },
                    "indices" : 7,
                    "material" : 1
                }
            ]
        },
        {
            "name" : "Cube.002",
            "primitives" : [
                {
                    "attributes" : {
                        "POSITION" : 8,
                        "NORMAL" : 9,
                        "TEXCOORD_0" : 10
                    },
                    "indices" : 11,
                    "material" : 2
                }
            ]
        },
        {
            "name" : "Cylinder",
            "primitives" : [
                {
                    "attributes" : {
                        "POSITION" : 12,
                        "NORMAL" : 13,
                        "TEXCOORD_0" : 14
                    },
                    "indices" : 15,
                    "material" : 3
                }
            ]
        },
        {
            "name" : "Cylinder.001",
            "primitives" : [
                {
                    "attributes" : {
                        "POSITION" : 16,
                        "NORMAL" : 17,
                        "TEXCOORD_0" : 18
                    },
                    "indices" : 15,
                    "material" : 3
                }
            ]
        },
        {
            "name" : "Cube.003",
            "primitives" : [
                {
                    "attributes" : {
                        "POSITION" : 19,
                        "NORMAL" : 20,
                        "TEXCOORD_0" : 21
                    },
                    "indices" : 22,
                    "material" : 2
                },
                {
                    "attributes" : {
                        "POSITION" : 23,
                        "NORMAL" : 24,
                        "TEXCOORD_0" : 25
                    },
                    "indices" : 26,
                    "material" : 4
                }
            ]
        },
        {
            "name" : "startrekwelcome",
            "primitives" : [
                {
                    "attributes" : {
                        "POSITION" : 27,
                        "NORMAL" : 28,
                        "TEXCOORD_0" : 29
                    },
                    "indices" : 30,
                    "material" : 5
                }
            ]
        }
    ],
    "textures" : [
        {
            "source" : 0
        }
    ],
    "images" : [
        {
            "bufferView" : 31,
            "mimeType" : "image/png",
            "name" : "startrekwelcome"
        }
    ],
    "accessors" : [
        {
            "bufferView" : 0,
            "componentType" : 5126,
            "count" : 757,
            "max" : [
                1.1737051010131836,
                1.1039248704910278,
                1.1039248704910278
            ],
            "min" : [
                -1,
                -1.1039248704910278,
                -1.1039248704910278
            ],
            "type" : "VEC3"
        },
        {
            "bufferView" : 1,
            "componentType" : 5126,
            "count" : 757,
            "type" : "VEC3"
        },
        {
            "bufferView" : 2,
            "componentType" : 5126,
            "count" : 757,
            "type" : "VEC2"
        },
        {
            "bufferView" : 3,
            "componentType" : 5123,
            "count" : 1212,
            "type" : "SCALAR"
        },
        {
            "bufferView" : 4,
            "componentType" : 5126,
            "count" : 66,
            "max" : [
                0.9107024669647217,
                0.9437764286994934,
                0.9437764286994934
            ],
            "min" : [
                0.9107024669647217,
                -0.9437764286994934,
                -0.9437764286994934
            ],
            "type" : "VEC3"
        },
        {
            "bufferView" : 5,
            "componentType" : 5126,
            "count" : 66,
            "type" : "VEC3"
        },
        {
            "bufferView" : 6,
            "componentType" : 5126,
            "count" : 66,
            "type" : "VEC2"
        },
        {
            "bufferView" : 7,
            "componentType" : 5123,
            "count" : 66,
            "type" : "SCALAR"
        },
        {
            "bufferView" : 8,
            "componentType" : 5126,
            "count" : 140,
            "max" : [
                1,
                1,
                1
            ],
            "min" : [
                -1,
                -1,
                -1
            ],
            "type" : "VEC3"
        },
        {
            "bufferView" : 9,
            "componentType" : 5126,
            "count" : 140,
            "type" : "VEC3"
        },
        {
            "bufferView" : 10,
            "componentType" : 5126,
            "count" : 140,
            "type" : "VEC2"
        },
        {
            "bufferView" : 11,
            "componentType" : 5123,
            "count" : 348,
            "type" : "SCALAR"
        },
        {
            "bufferView" : 12,
            "componentType" : 5126,
            "count" : 192,
            "max" : [
                1,
                1,
                1
            ],
            "min" : [
                -1,
                -1,
                -1
            ],
            "type" : "VEC3"
        },
        {
            "bufferView" : 13,
            "componentType" : 5126,
            "count" : 192,
            "type" : "VEC3"
        },
        {
            "bufferView" : 14,
            "componentType" : 5126,
            "count" : 192,
            "type" : "VEC2"
        },
        {
            "bufferView" : 15,
            "componentType" : 5123,
            "count" : 372,
            "type" : "SCALAR"
        },
        {
            "bufferView" : 16,
            "componentType" : 5126,
            "count" : 192,
            "max" : [
                1,
                1,
                1
            ],
            "min" : [
                -1,
                -1,
                -1
            ],
            "type" : "VEC3"
        },
        {
            "bufferView" : 17,
            "componentType" : 5126,
            "count" : 192,
            "type" : "VEC3"
        },
        {
            "bufferView" : 18,
            "componentType" : 5126,
            "count" : 192,
            "type" : "VEC2"
        },
        {
            "bufferView" : 19,
            "componentType" : 5126,
            "count" : 410,
            "max" : [
                1,
                1,
                1
            ],
            "min" : [
                -1.3775732517242432,
                -1,
                -1
            ],
            "type" : "VEC3"
        },
        {
            "bufferView" : 20,
            "componentType" : 5126,
            "count" : 410,
            "type" : "VEC3"
        },
        {
            "bufferView" : 21,
            "componentType" : 5126,
            "count" : 410,
            "type" : "VEC2"
        },
        {
            "bufferView" : 22,
            "componentType" : 5123,
            "count" : 798,
            "type" : "SCALAR"
        },
        {
            "bufferView" : 23,
            "componentType" : 5126,
            "count" : 40,
            "max" : [
                -1.3775732517242432,
                0.6720000505447388,
                0.9938036203384399
            ],
            "min" : [
                -1.3775732517242432,
                -0.8400000333786011,
                -1
            ],
            "type" : "VEC3"
        },
        {
            "bufferView" : 24,
            "componentType" : 5126,
            "count" : 40,
            "type" : "VEC3"
        },
        {
            "bufferView" : 25,
            "componentType" : 5126,
            "count" : 40,
            "type" : "VEC2"
        },
        {
            "bufferView" : 26,
            "componentType" : 5123,
            "count" : 60,
            "type" : "SCALAR"
        },
        {
            "bufferView" : 27,
            "componentType" : 5126,
            "count" : 4,
            "max" : [
                0.673130214214325,
                0,
                0.5
            ],
            "min" : [
                -0.673130214214325,
                0,
                -0.5
            ],
            "type" : "VEC3"
        },
        {
            "bufferView" : 28,
            "componentType" : 5126,
            "count" : 4,
            "type" : "VEC3"
        },
        {
            "bufferView" : 29,
            "componentType" : 5126,
            "count" : 4,
            "type" : "VEC2"
        },
        {
            "bufferView" : 30,
            "componentType" : 5123,
            "count" : 6,
            "type" : "SCALAR"
        }
    ],
    "bufferViews" : [
        {
            "buffer" : 0,
            "byteLength" : 9084,
            "byteOffset" : 0
        },
        {
            "buffer" : 0,
            "byteLength" : 9084,
            "byteOffset" : 9084
        },
        {
            "buffer" : 0,
            "byteLength" : 6056,
            "byteOffset" : 18168
        },
        {
            "buffer" : 0,
            "byteLength" : 2424,
            "byteOffset" : 24224
        },
        {
            "buffer" : 0,
            "byteLength" : 792,
            "byteOffset" : 26648
        },
        {
            "buffer" : 0,
            "byteLength" : 792,
            "byteOffset" : 27440
        },
        {
            "buffer" : 0,
            "byteLength" : 528,
            "byteOffset" : 28232
        },
        {
            "buffer" : 0,
            "byteLength" : 132,
            "byteOffset" : 28760
        },
        {
            "buffer" : 0,
            "byteLength" : 1680,
            "byteOffset" : 28892
        },
        {
            "buffer" : 0,
            "byteLength" : 1680,
            "byteOffset" : 30572
        },
        {
            "buffer" : 0,
            "byteLength" : 1120,
            "byteOffset" : 32252
        },
        {
            "buffer" : 0,
            "byteLength" : 696,
            "byteOffset" : 33372
        },
        {
            "buffer" : 0,
            "byteLength" : 2304,
            "byteOffset" : 34068
        },
        {
            "buffer" : 0,
            "byteLength" : 2304,
            "byteOffset" : 36372
        },
        {
            "buffer" : 0,
            "byteLength" : 1536,
            "byteOffset" : 38676
        },
        {
            "buffer" : 0,
            "byteLength" : 744,
            "byteOffset" : 40212
        },
        {
            "buffer" : 0,
            "byteLength" : 2304,
            "byteOffset" : 40956
        },
        {
            "buffer" : 0,
            "byteLength" : 2304,
            "byteOffset" : 43260
        },
        {
            "buffer" : 0,
            "byteLength" : 1536,
            "byteOffset" : 45564
        },
        {
            "buffer" : 0,
            "byteLength" : 4920,
            "byteOffset" : 47100
        },
        {
            "buffer" : 0,
            "byteLength" : 4920,
            "byteOffset" : 52020
        },
        {
            "buffer" : 0,
            "byteLength" : 3280,
            "byteOffset" : 56940
        },
        {
            "buffer" : 0,
            "byteLength" : 1596,
            "byteOffset" : 60220
        },
        {
            "buffer" : 0,
            "byteLength" : 480,
            "byteOffset" : 61816
        },
        {
            "buffer" : 0,
            "byteLength" : 480,
            "byteOffset" : 62296
        },
        {
            "buffer" : 0,
            "byteLength" : 320,
            "byteOffset" : 62776
        },
        {
            "buffer" : 0,
            "byteLength" : 120,
            "byteOffset" : 63096
        },
        {
            "buffer" : 0,
            "byteLength" : 48,
            "byteOffset" : 63216
        },
        {
            "buffer" : 0,
            "byteLength" : 48,
            "byteOffset" : 63264
        },
        {
            "buffer" : 0,
            "byteLength" : 32,
            "byteOffset" : 63312
        },
        {
            "buffer" : 0,
            "byteLength" : 12,
            "byteOffset" : 63344
        },
        {
            "buffer" : 0,
            "byteLength" : 2135240,
            "byteOffset" : 63356
        }
    ],
    "buffers" : [
        {
            "byteLength" : 2198596,
            "uri" : "data:application/octet-stream;base64,"
        }
    ]
}
