{
    "asset" : {
        "generator" : "Khronos glTF Blender I/O v1.5.17",
        "version" : "2.0"
    },
    "scene" : 0,
    "scenes" : [
        {
            "name" : "Scene",
            "nodes" : [
                0,
                1,
                2
            ]
        }
    ],
    "nodes" : [
        {
            "mesh" : 0,
            "name" : "house"
        },
        {
            "mesh" : 1,
            "name" : "city",
            "scale" : [
                2,
                2,
                2
            ],
            "translation" : [
                0,
                1.2200769186019897,
                0
            ]
        },
        {
            "mesh" : 2,
            "name" : "house1"
        }
    ],
    "materials" : [
        {
            "doubleSided" : true,
            "name" : "material",
            "pbrMetallicRoughness" : {
                "metallicFactor" : 0,
                "roughnessFactor" : 0.5
            }
        }
    ],
    "meshes" : [
        {
            "name" : "ID17",
            "primitives" : [
                {
                    "attributes" : {
                        "POSITION" : 0,
                        "NORMAL" : 1
                    },
                    "indices" : 2,
                    "material" : 0
                }
            ]
        },
        {
            "name" : "Plane",
            "primitives" : [
                {
                    "attributes" : {
                        "POSITION" : 3,
                        "NORMAL" : 4,
                        "TEXCOORD_0" : 5
                    },
                    "indices" : 6
                }
            ]
        },
        {
            "name" : "Cube",
            "primitives" : [
                {
                    "attributes" : {
                        "POSITION" : 7,
                        "NORMAL" : 8,
                        "TEXCOORD_0" : 9
                    },
                    "indices" : 10
                }
            ]
        }
    ],
    "accessors" : [
        {
            "bufferView" : 0,
            "componentType" : 5126,
            "count" : 522,
            "max" : [
                2.1725692749023438,
                1.624541997909546,
                2.871434450149536
            ],
            "min" : [
                -2.2448909282684326,
                -1.5892748832702637,
                -1.1877501010894775
            ],
            "type" : "VEC3"
        },
        {
            "bufferView" : 1,
            "componentType" : 5126,
            "count" : 522,
            "type" : "VEC3"
        },
        {
            "bufferView" : 2,
            "componentType" : 5123,
            "count" : 792,
            "type" : "SCALAR"
        },
        {
            "bufferView" : 3,
            "componentType" : 5126,
            "count" : 1356,
            "max" : [
                3.4164633750915527,
                -0.05250728130340576,
                3.069040298461914
            ],
            "min" : [
                -2.5835366249084473,
                -2.031968355178833,
                -2.854435920715332
            ],
            "type" : "VEC3"
        },
        {
            "bufferView" : 4,
            "componentType" : 5126,
            "count" : 1356,
            "type" : "VEC3"
        },
        {
            "bufferView" : 5,
            "componentType" : 5126,
            "count" : 1356,
            "type" : "VEC2"
        },
        {
            "bufferView" : 6,
            "componentType" : 5123,
            "count" : 2280,
            "type" : "SCALAR"
        },
        {
            "bufferView" : 7,
            "componentType" : 5126,
            "count" : 171,
            "max" : [
                2.74729585647583,
                2.446338415145874,
                1.736160397529602
            ],
            "min" : [
                -2.6987600326538086,
                -1.8642005920410156,
                -2.316288948059082
            ],
            "type" : "VEC3"
        },
        {
            "bufferView" : 8,
            "componentType" : 5126,
            "count" : 171,
            "type" : "VEC3"
        },
        {
            "bufferView" : 9,
            "componentType" : 5126,
            "count" : 171,
            "type" : "VEC2"
        },
        {
            "bufferView" : 10,
            "componentType" : 5123,
            "count" : 408,
            "type" : "SCALAR"
        }
    ],
    "bufferViews" : [
        {
            "buffer" : 0,
            "byteLength" : 6264,
            "byteOffset" : 0
        },
        {
            "buffer" : 0,
            "byteLength" : 6264,
            "byteOffset" : 6264
        },
        {
            "buffer" : 0,
            "byteLength" : 1584,
            "byteOffset" : 12528
        },
        {
            "buffer" : 0,
            "byteLength" : 16272,
            "byteOffset" : 14112
        },
        {
            "buffer" : 0,
            "byteLength" : 16272,
            "byteOffset" : 30384
        },
        {
            "buffer" : 0,
            "byteLength" : 10848,
            "byteOffset" : 46656
        },
        {
            "buffer" : 0,
            "byteLength" : 4560,
            "byteOffset" : 57504
        },
        {
            "buffer" : 0,
            "byteLength" : 2052,
            "byteOffset" : 62064
        },
        {
            "buffer" : 0,
            "byteLength" : 2052,
            "byteOffset" : 64116
        },
        {
            "buffer" : 0,
            "byteLength" : 1368,
            "byteOffset" : 66168
        },
        {
            "buffer" : 0,
            "byteLength" : 816,
            "byteOffset" : 67536
        }
    ],
    "buffers" : [
        {
            "byteLength" : 68352,
            "uri" : "data:application/octet-stream;base64,"
        }
    ]
}
