{
    "asset" : {
        "generator" : "Khronos glTF Blender I/O v1.5.17",
        "version" : "2.0"
    },
    "scene" : 0,
    "scenes" : [
        {
            "name" : "Scene",
            "nodes" : [
                0
            ]
        }
    ],
    "nodes" : [
        {
            "mesh" : 0,
            "name" : "Plane",
            "scale" : [
                2,
                2,
                2
            ]
        }
    ],
    "meshes" : [
        {
            "name" : "Plane",
            "primitives" : [
                {
                    "attributes" : {
                        "POSITION" : 0,
                        "NORMAL" : 1,
                        "TEXCOORD_0" : 2
                    },
                    "indices" : 3
                }
            ]
        }
    ],
    "accessors" : [
        {
            "bufferView" : 0,
            "componentType" : 5126,
            "count" : 840,
            "max" : [
                1,
                0.3815575838088989,
                1
            ],
            "min" : [
                -1,
                0,
                -1
            ],
            "type" : "VEC3"
        },
        {
            "bufferView" : 1,
            "componentType" : 5126,
            "count" : 840,
            "type" : "VEC3"
        },
        {
            "bufferView" : 2,
            "componentType" : 5126,
            "count" : 840,
            "type" : "VEC2"
        },
        {
            "bufferView" : 3,
            "componentType" : 5123,
            "count" : 2280,
            "type" : "SCALAR"
        }
    ],
    "bufferViews" : [
        {
            "buffer" : 0,
            "byteLength" : 10080,
            "byteOffset" : 0
        },
        {
            "buffer" : 0,
            "byteLength" : 10080,
            "byteOffset" : 10080
        },
        {
            "buffer" : 0,
            "byteLength" : 6720,
            "byteOffset" : 20160
        },
        {
            "buffer" : 0,
            "byteLength" : 4560,
            "byteOffset" : 26880
        }
    ],
    "buffers" : [
        {
            "byteLength" : 31440,
            "uri" : "data:application/octet-stream;base64,"
        }
    ]
}
