{
    "asset" : {
        "generator" : "Khronos glTF Blender I/O v1.5.17",
        "version" : "2.0"
    },
    "scene" : 0,
    "scenes" : [
        {
            "name" : "Scene",
            "nodes" : [
                0
            ]
        }
    ],
    "nodes" : [
        {
            "mesh" : 0,
            "name" : "house",
            "rotation" : [
                0,
                -0.7071068286895752,
                0,
                0.7071068286895752
            ],
            "scale" : [
                0.02539999969303608,
                0.02539999969303608,
                0.02539999969303608
            ],
            "translation" : [
                -0.6452550888061523,
                -0.7102890014648438,
                -0.2580294609069824
            ]
        }
    ],
    "materials" : [
        {
            "doubleSided" : true,
            "name" : "Material.001",
            "pbrMetallicRoughness" : {
                "baseColorFactor" : [
                    0.04569926857948303,
                    0.04569926857948303,
                    0.04569926857948303,
                    1
                ],
                "metallicFactor" : 0,
                "roughnessFactor" : 0.5
            }
        }
    ],
    "meshes" : [
        {
            "name" : "ID23",
            "primitives" : [
                {
                    "attributes" : {
                        "POSITION" : 0,
                        "NORMAL" : 1
                    },
                    "indices" : 2,
                    "material" : 0
                }
            ]
        }
    ],
    "accessors" : [
        {
            "bufferView" : 0,
            "componentType" : 5126,
            "count" : 485,
            "max" : [
                180.01866149902344,
                145.05740356445312,
                107.53228759765625
            ],
            "min" : [
                -157.16888427734375,
                -100.2551498413086,
                -202.30787658691406
            ],
            "type" : "VEC3"
        },
        {
            "bufferView" : 1,
            "componentType" : 5126,
            "count" : 485,
            "type" : "VEC3"
        },
        {
            "bufferView" : 2,
            "componentType" : 5123,
            "count" : 792,
            "type" : "SCALAR"
        }
    ],
    "bufferViews" : [
        {
            "buffer" : 0,
            "byteLength" : 5820,
            "byteOffset" : 0
        },
        {
            "buffer" : 0,
            "byteLength" : 5820,
            "byteOffset" : 5820
        },
        {
            "buffer" : 0,
            "byteLength" : 1584,
            "byteOffset" : 11640
        }
    ],
    "buffers" : [
        {
            "byteLength" : 13224,
            "uri" : "data:application/octet-stream;base64,"
        }
    ]
}
