{
    "asset" : {
        "generator" : "Khronos glTF Blender I/O v1.5.17",
        "version" : "2.0"
    },
    "scene" : 0,
    "scenes" : [
        {
            "name" : "Scene",
            "nodes" : [
                0
            ]
        }
    ],
    "nodes" : [
        {
            "mesh" : 0,
            "name" : "house"
        }
    ],
    "materials" : [
        {
            "doubleSided" : true,
            "name" : "material",
            "pbrMetallicRoughness" : {
                "metallicFactor" : 0,
                "roughnessFactor" : 0.5
            }
        }
    ],
    "meshes" : [
        {
            "name" : "ID17",
            "primitives" : [
                {
                    "attributes" : {
                        "POSITION" : 0,
                        "NORMAL" : 1
                    },
                    "indices" : 2,
                    "material" : 0
                }
            ]
        }
    ],
    "accessors" : [
        {
            "bufferView" : 0,
            "componentType" : 5126,
            "count" : 522,
            "max" : [
                2.1725692749023438,
                1.624541997909546,
                2.871434450149536
            ],
            "min" : [
                -2.2448909282684326,
                -1.5892748832702637,
                -1.1877501010894775
            ],
            "type" : "VEC3"
        },
        {
            "bufferView" : 1,
            "componentType" : 5126,
            "count" : 522,
            "type" : "VEC3"
        },
        {
            "bufferView" : 2,
            "componentType" : 5123,
            "count" : 792,
            "type" : "SCALAR"
        }
    ],
    "bufferViews" : [
        {
            "buffer" : 0,
            "byteLength" : 6264,
            "byteOffset" : 0
        },
        {
            "buffer" : 0,
            "byteLength" : 6264,
            "byteOffset" : 6264
        },
        {
            "buffer" : 0,
            "byteLength" : 1584,
            "byteOffset" : 12528
        }
    ],
    "buffers" : [
        {
            "byteLength" : 14112,
            "uri" : "data:application/octet-stream;base64,"
        }
    ]
}
