{
    "asset" : {
        "generator" : "Khronos glTF Blender I/O v1.5.17",
        "version" : "2.0"
    },
    "scene" : 0,
    "scenes" : [
        {
            "name" : "Scene",
            "nodes" : [
                0,
                1,
                2,
                3,
                4,
                5,
                6,
                7
            ]
        }
    ],
    "nodes" : [
        {
            "mesh" : 0,
            "name" : "arrow2",
            "rotation" : [
                0,
                0,
                0.17104102671146393,
                0.985264003276825
            ],
            "scale" : [
                13.021444320678711,
                13.021444320678711,
                13.021444320678711
            ],
            "translation" : [
                9.458517074584961,
                1.1914558410644531,
                -3.591305732727051
            ]
        },
        {
            "mesh" : 1,
            "name" : "arrow1",
            "rotation" : [
                0.25625693798065186,
                0,
                0,
                0.9666087031364441
            ],
            "scale" : [
                9.10796070098877,
                9.10796070098877,
                9.10796070098877
            ],
            "translation" : [
                -4.962362289428711,
                0.9489517211914062,
                -10.735517501831055
            ]
        },
        {
            "mesh" : 2,
            "name" : "arrow",
            "rotation" : [
                0.29705190658569336,
                -0.16310685873031616,
                0.32328641414642334,
                0.8835397362709045
            ],
            "scale" : [
                9.71445083618164,
                9.71445083618164,
                9.71445083618164
            ],
            "translation" : [
                0.8974709510803223,
                0,
                -10.654928207397461
            ]
        },
        {
            "mesh" : 3,
            "name" : "Plane",
            "translation" : [
                0,
                -3.6288681030273438,
                0
            ]
        },
        {
            "mesh" : 4,
            "name" : "body",
            "rotation" : [
                0.5304907560348511,
                0.46298009157180786,
                -0.47287437319755554,
                0.5297346711158752
            ],
            "scale" : [
                0.3032982647418976,
                0.3032982647418976,
                0.3032982349395752
            ],
            "translation" : [
                0.07345151901245117,
                2.2929306030273438,
                -22.713092803955078
            ]
        },
        {
            "mesh" : 5,
            "name" : "body.002",
            "rotation" : [
                0.47287434339523315,
                -0.5297346711158752,
                0.5304908156394958,
                0.4629800617694855
            ],
            "scale" : [
                0.3032982647418976,
                0.3032982647418976,
                0.3032982349395752
            ],
            "translation" : [
                0.07345151901245117,
                -0.2824745178222656,
                0.7917575836181641
            ]
        },
        {
            "mesh" : 6,
            "name" : "Untitled-3",
            "rotation" : [
                0.3907436728477478,
                0.5893380641937256,
                -0.5893381237983704,
                0.3907436430454254
            ],
            "translation" : [
                1.806380271911621,
                35.37944793701172,
                -3.076714515686035
            ]
        },
        {
            "name" : "BezierCircle",
            "rotation" : [
                0,
                0.8334499597549438,
                0,
                0.5525949597358704
            ],
            "translation" : [
                4.64044713973999,
                38.78855895996094,
                2.724468231201172
            ]
        }
    ],
    "materials" : [
        {
            "alphaMode" : "BLEND",
            "doubleSided" : true,
            "emissiveFactor" : [
                0.004105452448129654,
                0.011282939463853836,
                0.2018931359052658
            ],
            "name" : "arrow2",
            "pbrMetallicRoughness" : {
                "baseColorTexture" : {
                    "index" : 0
                },
                "metallicFactor" : 0,
                "roughnessFactor" : 0.5
            }
        },
        {
            "alphaMode" : "BLEND",
            "doubleSided" : true,
            "emissiveFactor" : [
                0.48689669370651245,
                0.03054121881723404,
                0.19081300497055054
            ],
            "name" : "attack",
            "pbrMetallicRoughness" : {
                "baseColorTexture" : {
                    "index" : 1
                },
                "metallicFactor" : 0,
                "roughnessFactor" : 0.5
            }
        },
        {
            "alphaMode" : "BLEND",
            "doubleSided" : true,
            "name" : "jump",
            "pbrMetallicRoughness" : {
                "baseColorTexture" : {
                    "index" : 2
                },
                "metallicFactor" : 0,
                "roughnessFactor" : 0.5
            }
        },
        {
            "doubleSided" : true,
            "name" : "Material.004",
            "pbrMetallicRoughness" : {
                "baseColorFactor" : [
                    0.0028374935500323772,
                    0.0028374935500323772,
                    0.0028374935500323772,
                    1
                ],
                "metallicFactor" : 0,
                "roughnessFactor" : 0.5
            }
        },
        {
            "doubleSided" : true,
            "name" : "Material.007",
            "pbrMetallicRoughness" : {
                "baseColorFactor" : [
                    0.016352461650967598,
                    0.03809110075235367,
                    0.044438183307647705,
                    1
                ],
                "metallicFactor" : 0.41860467195510864,
                "roughnessFactor" : 0.5
            }
        },
        {
            "doubleSided" : true,
            "name" : "Material.013",
            "pbrMetallicRoughness" : {
                "baseColorFactor" : [
                    0.0015214754967018962,
                    0.005161963403224945,
                    0.04444203898310661,
                    1
                ],
                "metallicFactor" : 0.9883720874786377,
                "roughnessFactor" : 0.5
            }
        },
        {
            "alphaMode" : "BLEND",
            "doubleSided" : true,
            "name" : "Untitled-3",
            "pbrMetallicRoughness" : {
                "baseColorTexture" : {
                    "index" : 3
                },
                "metallicFactor" : 0,
                "roughnessFactor" : 0.5
            }
        }
    ],
    "meshes" : [
        {
            "name" : "arrow2",
            "primitives" : [
                {
                    "attributes" : {
                        "POSITION" : 0,
                        "NORMAL" : 1,
                        "TEXCOORD_0" : 2
                    },
                    "indices" : 3,
                    "material" : 0
                }
            ]
        },
        {
            "name" : "attack",
            "primitives" : [
                {
                    "attributes" : {
                        "POSITION" : 4,
                        "NORMAL" : 5,
                        "TEXCOORD_0" : 6
                    },
                    "indices" : 3,
                    "material" : 1
                }
            ]
        },
        {
            "name" : "jump",
            "primitives" : [
                {
                    "attributes" : {
                        "POSITION" : 7,
                        "NORMAL" : 8,
                        "TEXCOORD_0" : 9
                    },
                    "indices" : 3,
                    "material" : 2
                }
            ]
        },
        {
            "name" : "Plane.002",
            "primitives" : [
                {
                    "attributes" : {
                        "POSITION" : 10,
                        "NORMAL" : 11,
                        "TEXCOORD_0" : 12
                    },
                    "indices" : 13,
                    "material" : 3
                }
            ]
        },
        {
            "name" : "\u041f\u043b\u043e\u0441\u043a\u043e\u0441\u0442\u044c",
            "primitives" : [
                {
                    "attributes" : {
                        "POSITION" : 14,
                        "NORMAL" : 15,
                        "TEXCOORD_0" : 16
                    },
                    "indices" : 17,
                    "material" : 4
                }
            ]
        },
        {
            "name" : "\u041f\u043b\u043e\u0441\u043a\u043e\u0441\u0442\u044c.001",
            "primitives" : [
                {
                    "attributes" : {
                        "POSITION" : 18,
                        "NORMAL" : 19,
                        "TEXCOORD_0" : 20
                    },
                    "indices" : 21,
                    "material" : 5
                }
            ]
        },
        {
            "name" : "Untitled-3",
            "primitives" : [
                {
                    "attributes" : {
                        "POSITION" : 22,
                        "NORMAL" : 23,
                        "TEXCOORD_0" : 24
                    },
                    "indices" : 25,
                    "material" : 6
                }
            ]
        }
    ],
    "textures" : [
        {
            "sampler" : 0,
            "source" : 0
        },
        {
            "sampler" : 0,
            "source" : 1
        },
        {
            "sampler" : 0,
            "source" : 2
        },
        {
            "sampler" : 0,
            "source" : 3
        }
    ],
    "images" : [
        {
            "bufferView" : 4,
            "mimeType" : "image/png",
            "name" : "arrow2"
        },
        {
            "bufferView" : 8,
            "mimeType" : "image/png",
            "name" : "attack"
        },
        {
            "bufferView" : 12,
            "mimeType" : "image/png",
            "name" : "jump"
        },
        {
            "bufferView" : 29,
            "mimeType" : "image/png",
            "name" : "Untitled-3"
        }
    ],
    "accessors" : [
        {
            "bufferView" : 0,
            "componentType" : 5126,
            "count" : 4,
            "max" : [
                0.699999988079071,
                0,
                0.5
            ],
            "min" : [
                -0.699999988079071,
                0,
                -0.5
            ],
            "type" : "VEC3"
        },
        {
            "bufferView" : 1,
            "componentType" : 5126,
            "count" : 4,
            "type" : "VEC3"
        },
        {
            "bufferView" : 2,
            "componentType" : 5126,
            "count" : 4,
            "type" : "VEC2"
        },
        {
            "bufferView" : 3,
            "componentType" : 5123,
            "count" : 6,
            "type" : "SCALAR"
        },
        {
            "bufferView" : 5,
            "componentType" : 5126,
            "count" : 4,
            "max" : [
                0.699999988079071,
                0,
                0.5
            ],
            "min" : [
                -0.699999988079071,
                0,
                -0.5
            ],
            "type" : "VEC3"
        },
        {
            "bufferView" : 6,
            "componentType" : 5126,
            "count" : 4,
            "type" : "VEC3"
        },
        {
            "bufferView" : 7,
            "componentType" : 5126,
            "count" : 4,
            "type" : "VEC2"
        },
        {
            "bufferView" : 9,
            "componentType" : 5126,
            "count" : 4,
            "max" : [
                0.699999988079071,
                0,
                0.5
            ],
            "min" : [
                -0.699999988079071,
                0,
                -0.5
            ],
            "type" : "VEC3"
        },
        {
            "bufferView" : 10,
            "componentType" : 5126,
            "count" : 4,
            "type" : "VEC3"
        },
        {
            "bufferView" : 11,
            "componentType" : 5126,
            "count" : 4,
            "type" : "VEC2"
        },
        {
            "bufferView" : 13,
            "componentType" : 5126,
            "count" : 1418,
            "max" : [
                42,
                34.503570556640625,
                42
            ],
            "min" : [
                -42,
                -1.7807410955429077,
                -42
            ],
            "type" : "VEC3"
        },
        {
            "bufferView" : 14,
            "componentType" : 5126,
            "count" : 1418,
            "type" : "VEC3"
        },
        {
            "bufferView" : 15,
            "componentType" : 5126,
            "count" : 1418,
            "type" : "VEC2"
        },
        {
            "bufferView" : 16,
            "componentType" : 5123,
            "count" : 2454,
            "type" : "SCALAR"
        },
        {
            "bufferView" : 17,
            "componentType" : 5126,
            "count" : 2110,
            "max" : [
                33.2533073425293,
                30.075273513793945,
                17.282489776611328
            ],
            "min" : [
                -33.546104431152344,
                -11.242525100708008,
                -24.920358657836914
            ],
            "type" : "VEC3"
        },
        {
            "bufferView" : 18,
            "componentType" : 5126,
            "count" : 2110,
            "type" : "VEC3"
        },
        {
            "bufferView" : 19,
            "componentType" : 5126,
            "count" : 2110,
            "type" : "VEC2"
        },
        {
            "bufferView" : 20,
            "componentType" : 5123,
            "count" : 3300,
            "type" : "SCALAR"
        },
        {
            "bufferView" : 21,
            "componentType" : 5126,
            "count" : 2110,
            "max" : [
                40.06189727783203,
                7.869965076446533,
                12.505098342895508
            ],
            "min" : [
                -24.0252685546875,
                -7.869783401489258,
                -17.036893844604492
            ],
            "type" : "VEC3"
        },
        {
            "bufferView" : 22,
            "componentType" : 5126,
            "count" : 2110,
            "type" : "VEC3"
        },
        {
            "bufferView" : 23,
            "componentType" : 5126,
            "count" : 2110,
            "type" : "VEC2"
        },
        {
            "bufferView" : 24,
            "componentType" : 5123,
            "count" : 3300,
            "type" : "SCALAR"
        },
        {
            "bufferView" : 25,
            "componentType" : 5126,
            "count" : 472,
            "max" : [
                23.516925811767578,
                35.52651596069336,
                2.499999761581421
            ],
            "min" : [
                -41.09660720825195,
                6.940523147583008,
                -2.5000014305114746
            ],
            "type" : "VEC3"
        },
        {
            "bufferView" : 26,
            "componentType" : 5126,
            "count" : 472,
            "type" : "VEC3"
        },
        {
            "bufferView" : 27,
            "componentType" : 5126,
            "count" : 472,
            "type" : "VEC2"
        },
        {
            "bufferView" : 28,
            "componentType" : 5123,
            "count" : 726,
            "type" : "SCALAR"
        }
    ],
    "bufferViews" : [
        {
            "buffer" : 0,
            "byteLength" : 48,
            "byteOffset" : 0
        },
        {
            "buffer" : 0,
            "byteLength" : 48,
            "byteOffset" : 48
        },
        {
            "buffer" : 0,
            "byteLength" : 32,
            "byteOffset" : 96
        },
        {
            "buffer" : 0,
            "byteLength" : 12,
            "byteOffset" : 128
        },
        {
            "buffer" : 0,
            "byteLength" : 118697,
            "byteOffset" : 140
        },
        {
            "buffer" : 0,
            "byteLength" : 48,
            "byteOffset" : 118840
        },
        {
            "buffer" : 0,
            "byteLength" : 48,
            "byteOffset" : 118888
        },
        {
            "buffer" : 0,
            "byteLength" : 32,
            "byteOffset" : 118936
        },
        {
            "buffer" : 0,
            "byteLength" : 174457,
            "byteOffset" : 118968
        },
        {
            "buffer" : 0,
            "byteLength" : 48,
            "byteOffset" : 293428
        },
        {
            "buffer" : 0,
            "byteLength" : 48,
            "byteOffset" : 293476
        },
        {
            "buffer" : 0,
            "byteLength" : 32,
            "byteOffset" : 293524
        },
        {
            "buffer" : 0,
            "byteLength" : 120034,
            "byteOffset" : 293556
        },
        {
            "buffer" : 0,
            "byteLength" : 17016,
            "byteOffset" : 413592
        },
        {
            "buffer" : 0,
            "byteLength" : 17016,
            "byteOffset" : 430608
        },
        {
            "buffer" : 0,
            "byteLength" : 11344,
            "byteOffset" : 447624
        },
        {
            "buffer" : 0,
            "byteLength" : 4908,
            "byteOffset" : 458968
        },
        {
            "buffer" : 0,
            "byteLength" : 25320,
            "byteOffset" : 463876
        },
        {
            "buffer" : 0,
            "byteLength" : 25320,
            "byteOffset" : 489196
        },
        {
            "buffer" : 0,
            "byteLength" : 16880,
            "byteOffset" : 514516
        },
        {
            "buffer" : 0,
            "byteLength" : 6600,
            "byteOffset" : 531396
        },
        {
            "buffer" : 0,
            "byteLength" : 25320,
            "byteOffset" : 537996
        },
        {
            "buffer" : 0,
            "byteLength" : 25320,
            "byteOffset" : 563316
        },
        {
            "buffer" : 0,
            "byteLength" : 16880,
            "byteOffset" : 588636
        },
        {
            "buffer" : 0,
            "byteLength" : 6600,
            "byteOffset" : 605516
        },
        {
            "buffer" : 0,
            "byteLength" : 5664,
            "byteOffset" : 612116
        },
        {
            "buffer" : 0,
            "byteLength" : 5664,
            "byteOffset" : 617780
        },
        {
            "buffer" : 0,
            "byteLength" : 3776,
            "byteOffset" : 623444
        },
        {
            "buffer" : 0,
            "byteLength" : 1452,
            "byteOffset" : 627220
        },
        {
            "buffer" : 0,
            "byteLength" : 29811,
            "byteOffset" : 628672
        }
    ],
    "samplers" : [
        {
            "magFilter" : 9729,
            "minFilter" : 9987,
            "wrapS" : 33071,
            "wrapT" : 33071
        }
    ],
    "buffers" : [
        {
            "byteLength" : 658484,
            "uri" : "data:application/octet-stream;base64,"
        }
    ]
}
