{
    "asset" : {
        "generator" : "Khronos glTF Blender I/O v1.5.17",
        "version" : "2.0"
    },
    "scene" : 0,
    "scenes" : [
        {
            "name" : "Scene",
            "nodes" : [
                0,
                1,
                2,
                3,
                4,
                5,
                6
            ]
        }
    ],
    "nodes" : [
        {
            "mesh" : 0,
            "name" : "arrow2",
            "rotation" : [
                0,
                0,
                0.17104102671146393,
                0.985264003276825
            ],
            "scale" : [
                13.021444320678711,
                13.021444320678711,
                13.021444320678711
            ],
            "translation" : [
                9.458517074584961,
                1.1914558410644531,
                -3.591305732727051
            ]
        },
        {
            "mesh" : 1,
            "name" : "Plane",
            "translation" : [
                0,
                -3.6288681030273438,
                0
            ]
        },
        {
            "mesh" : 2,
            "name" : "body.002",
            "rotation" : [
                0.47287434339523315,
                -0.5297346711158752,
                0.5304908156394958,
                0.4629800617694855
            ],
            "scale" : [
                0.3032982647418976,
                0.3032982647418976,
                0.3032982349395752
            ],
            "translation" : [
                0.07345151901245117,
                0.35707080364227295,
                0.7917575836181641
            ]
        },
        {
            "mesh" : 3,
            "name" : "Untitled-3",
            "rotation" : [
                0.3907436728477478,
                0.5893380641937256,
                -0.5893381237983704,
                0.3907436430454254
            ],
            "translation" : [
                1.806380271911621,
                35.37944793701172,
                -3.076714515686035
            ]
        },
        {
            "name" : "BezierCircle",
            "rotation" : [
                0,
                0.8334499597549438,
                0,
                0.5525949597358704
            ],
            "translation" : [
                4.64044713973999,
                38.78855895996094,
                2.724468231201172
            ]
        },
        {
            "name" : "Cylinder",
            "scale" : [
                100,
                10,
                100
            ],
            "translation" : [
                0,
                0.4876019060611725,
                0
            ]
        },
        {
            "mesh" : 4,
            "name" : "body.001",
            "rotation" : [
                0.5304907560348511,
                0.46298009157180786,
                -0.47287437319755554,
                0.5297346711158752
            ],
            "scale" : [
                0.3032982647418976,
                0.3032982647418976,
                0.3032982349395752
            ],
            "translation" : [
                0.07345151901245117,
                2.2929306030273438,
                -22.713092803955078
            ]
        }
    ],
    "materials" : [
        {
            "alphaMode" : "BLEND",
            "doubleSided" : true,
            "emissiveFactor" : [
                0.004105452448129654,
                0.011282939463853836,
                0.2018931359052658
            ],
            "name" : "arrow2",
            "pbrMetallicRoughness" : {
                "baseColorTexture" : {
                    "index" : 0
                },
                "metallicFactor" : 0,
                "roughnessFactor" : 0.5
            }
        },
        {
            "doubleSided" : true,
            "name" : "Material.004",
            "pbrMetallicRoughness" : {
                "baseColorFactor" : [
                    0.0028374935500323772,
                    0.0028374935500323772,
                    0.0028374935500323772,
                    1
                ],
                "metallicFactor" : 0,
                "roughnessFactor" : 0.5
            }
        },
        {
            "doubleSided" : true,
            "name" : "Material.013",
            "pbrMetallicRoughness" : {
                "baseColorFactor" : [
                    0,
                    0.7572992444038391,
                    1,
                    1
                ],
                "metallicFactor" : 0,
                "roughnessFactor" : 0.5
            }
        },
        {
            "alphaMode" : "BLEND",
            "doubleSided" : true,
            "name" : "Untitled-3",
            "pbrMetallicRoughness" : {
                "baseColorTexture" : {
                    "index" : 1
                },
                "metallicFactor" : 0,
                "roughnessFactor" : 0.5
            }
        },
        {
            "doubleSided" : true,
            "name" : "Material.001",
            "pbrMetallicRoughness" : {
                "baseColorFactor" : [
                    0.039615027606487274,
                    0.010487029328942299,
                    1,
                    1
                ],
                "metallicFactor" : 0.41860467195510864,
                "roughnessFactor" : 0.5
            }
        }
    ],
    "meshes" : [
        {
            "name" : "arrow2",
            "primitives" : [
                {
                    "attributes" : {
                        "POSITION" : 0,
                        "NORMAL" : 1,
                        "TEXCOORD_0" : 2
                    },
                    "indices" : 3,
                    "material" : 0
                }
            ]
        },
        {
            "name" : "Plane.002",
            "primitives" : [
                {
                    "attributes" : {
                        "POSITION" : 4,
                        "NORMAL" : 5,
                        "TEXCOORD_0" : 6
                    },
                    "indices" : 7,
                    "material" : 1
                }
            ]
        },
        {
            "name" : "\u041f\u043b\u043e\u0441\u043a\u043e\u0441\u0442\u044c.001",
            "primitives" : [
                {
                    "attributes" : {
                        "POSITION" : 8,
                        "NORMAL" : 9,
                        "TEXCOORD_0" : 10
                    },
                    "indices" : 11,
                    "material" : 2
                }
            ]
        },
        {
            "name" : "Untitled-3",
            "primitives" : [
                {
                    "attributes" : {
                        "POSITION" : 12,
                        "NORMAL" : 13,
                        "TEXCOORD_0" : 14
                    },
                    "indices" : 15,
                    "material" : 3
                }
            ]
        },
        {
            "name" : "\u041f\u043b\u043e\u0441\u043a\u043e\u0441\u0442\u044c.002",
            "primitives" : [
                {
                    "attributes" : {
                        "POSITION" : 16,
                        "NORMAL" : 17,
                        "TEXCOORD_0" : 18
                    },
                    "indices" : 19,
                    "material" : 4
                }
            ]
        }
    ],
    "textures" : [
        {
            "sampler" : 0,
            "source" : 0
        },
        {
            "sampler" : 0,
            "source" : 1
        }
    ],
    "images" : [
        {
            "bufferView" : 4,
            "mimeType" : "image/png",
            "name" : "arrow2"
        },
        {
            "bufferView" : 17,
            "mimeType" : "image/png",
            "name" : "Untitled-3"
        }
    ],
    "accessors" : [
        {
            "bufferView" : 0,
            "componentType" : 5126,
            "count" : 4,
            "max" : [
                0.699999988079071,
                0,
                0.5
            ],
            "min" : [
                -0.699999988079071,
                0,
                -0.5
            ],
            "type" : "VEC3"
        },
        {
            "bufferView" : 1,
            "componentType" : 5126,
            "count" : 4,
            "type" : "VEC3"
        },
        {
            "bufferView" : 2,
            "componentType" : 5126,
            "count" : 4,
            "type" : "VEC2"
        },
        {
            "bufferView" : 3,
            "componentType" : 5123,
            "count" : 6,
            "type" : "SCALAR"
        },
        {
            "bufferView" : 5,
            "componentType" : 5126,
            "count" : 1418,
            "max" : [
                42,
                34.503570556640625,
                42
            ],
            "min" : [
                -42,
                -1.7807410955429077,
                -42
            ],
            "type" : "VEC3"
        },
        {
            "bufferView" : 6,
            "componentType" : 5126,
            "count" : 1418,
            "type" : "VEC3"
        },
        {
            "bufferView" : 7,
            "componentType" : 5126,
            "count" : 1418,
            "type" : "VEC2"
        },
        {
            "bufferView" : 8,
            "componentType" : 5123,
            "count" : 2454,
            "type" : "SCALAR"
        },
        {
            "bufferView" : 9,
            "componentType" : 5126,
            "count" : 3384,
            "max" : [
                40.114234924316406,
                7.937460899353027,
                12.544962882995605
            ],
            "min" : [
                -24.0902099609375,
                -7.937279224395752,
                -17.09892463684082
            ],
            "type" : "VEC3"
        },
        {
            "bufferView" : 10,
            "componentType" : 5126,
            "count" : 3384,
            "type" : "VEC3"
        },
        {
            "bufferView" : 11,
            "componentType" : 5126,
            "count" : 3384,
            "type" : "VEC2"
        },
        {
            "bufferView" : 12,
            "componentType" : 5123,
            "count" : 25416,
            "type" : "SCALAR"
        },
        {
            "bufferView" : 13,
            "componentType" : 5126,
            "count" : 472,
            "max" : [
                23.516925811767578,
                35.52651596069336,
                2.499999761581421
            ],
            "min" : [
                -41.09660720825195,
                6.940523147583008,
                -2.5000014305114746
            ],
            "type" : "VEC3"
        },
        {
            "bufferView" : 14,
            "componentType" : 5126,
            "count" : 472,
            "type" : "VEC3"
        },
        {
            "bufferView" : 15,
            "componentType" : 5126,
            "count" : 472,
            "type" : "VEC2"
        },
        {
            "bufferView" : 16,
            "componentType" : 5123,
            "count" : 726,
            "type" : "SCALAR"
        },
        {
            "bufferView" : 18,
            "componentType" : 5126,
            "count" : 3384,
            "max" : [
                33.249107360839844,
                24.773212432861328,
                17.3491153717041
            ],
            "min" : [
                -33.42271041870117,
                -9.531688690185547,
                -15.535823822021484
            ],
            "type" : "VEC3"
        },
        {
            "bufferView" : 19,
            "componentType" : 5126,
            "count" : 3384,
            "type" : "VEC3"
        },
        {
            "bufferView" : 20,
            "componentType" : 5126,
            "count" : 3384,
            "type" : "VEC2"
        },
        {
            "bufferView" : 21,
            "componentType" : 5123,
            "count" : 25416,
            "type" : "SCALAR"
        }
    ],
    "bufferViews" : [
        {
            "buffer" : 0,
            "byteLength" : 48,
            "byteOffset" : 0
        },
        {
            "buffer" : 0,
            "byteLength" : 48,
            "byteOffset" : 48
        },
        {
            "buffer" : 0,
            "byteLength" : 32,
            "byteOffset" : 96
        },
        {
            "buffer" : 0,
            "byteLength" : 12,
            "byteOffset" : 128
        },
        {
            "buffer" : 0,
            "byteLength" : 118697,
            "byteOffset" : 140
        },
        {
            "buffer" : 0,
            "byteLength" : 17016,
            "byteOffset" : 118840
        },
        {
            "buffer" : 0,
            "byteLength" : 17016,
            "byteOffset" : 135856
        },
        {
            "buffer" : 0,
            "byteLength" : 11344,
            "byteOffset" : 152872
        },
        {
            "buffer" : 0,
            "byteLength" : 4908,
            "byteOffset" : 164216
        },
        {
            "buffer" : 0,
            "byteLength" : 40608,
            "byteOffset" : 169124
        },
        {
            "buffer" : 0,
            "byteLength" : 40608,
            "byteOffset" : 209732
        },
        {
            "buffer" : 0,
            "byteLength" : 27072,
            "byteOffset" : 250340
        },
        {
            "buffer" : 0,
            "byteLength" : 50832,
            "byteOffset" : 277412
        },
        {
            "buffer" : 0,
            "byteLength" : 5664,
            "byteOffset" : 328244
        },
        {
            "buffer" : 0,
            "byteLength" : 5664,
            "byteOffset" : 333908
        },
        {
            "buffer" : 0,
            "byteLength" : 3776,
            "byteOffset" : 339572
        },
        {
            "buffer" : 0,
            "byteLength" : 1452,
            "byteOffset" : 343348
        },
        {
            "buffer" : 0,
            "byteLength" : 29811,
            "byteOffset" : 344800
        },
        {
            "buffer" : 0,
            "byteLength" : 40608,
            "byteOffset" : 374612
        },
        {
            "buffer" : 0,
            "byteLength" : 40608,
            "byteOffset" : 415220
        },
        {
            "buffer" : 0,
            "byteLength" : 27072,
            "byteOffset" : 455828
        },
        {
            "buffer" : 0,
            "byteLength" : 50832,
            "byteOffset" : 482900
        }
    ],
    "samplers" : [
        {
            "magFilter" : 9729,
            "minFilter" : 9987,
            "wrapS" : 33071,
            "wrapT" : 33071
        }
    ],
    "buffers" : [
        {
            "byteLength" : 533732,
            "uri" : "data:application/octet-stream;base64,"
        }
    ]
}
