{
    "asset" : {
        "generator" : "Khronos glTF Blender I/O v1.5.17",
        "version" : "2.0"
    },
    "scene" : 0,
    "scenes" : [
        {
            "name" : "Scene",
            "nodes" : [
                0,
                1
            ]
        }
    ],
    "nodes" : [
        {
            "mesh" : 0,
            "name" : "computer",
            "scale" : [
                0.27916577458381653,
                1.2000000476837158,
                1.4791699647903442
            ]
        },
        {
            "mesh" : 1,
            "name" : "screen",
            "rotation" : [
                0,
                0,
                0,
                -1
            ],
            "scale" : [
                0.27916601300239563,
                1.2000000476837158,
                1.4791699647903442
            ]
        }
    ],
    "materials" : [
        {
            "doubleSided" : true,
            "name" : "Material.001",
            "pbrMetallicRoughness" : {
                "baseColorFactor" : [
                    0.21096599102020264,
                    0.19583402574062347,
                    0.17575488984584808,
                    1
                ],
                "metallicFactor" : 0.5512820482254028,
                "roughnessFactor" : 0.38461536169052124
            }
        },
        {
            "doubleSided" : true,
            "emissiveFactor" : [
                0.05326150916516781,
                0.16784422099590302,
                1
            ],
            "name" : "Material.003",
            "pbrMetallicRoughness" : {}
        },
        {
            "doubleSided" : true,
            "emissiveFactor" : [
                1,
                1,
                1
            ],
            "emissiveTexture" : {
                "index" : 0
            },
            "name" : "Material.006",
            "pbrMetallicRoughness" : {}
        }
    ],
    "meshes" : [
        {
            "name" : "Cube",
            "primitives" : [
                {
                    "attributes" : {
                        "POSITION" : 0,
                        "NORMAL" : 1,
                        "TEXCOORD_0" : 2
                    },
                    "indices" : 3,
                    "material" : 0
                },
                {
                    "attributes" : {
                        "POSITION" : 4,
                        "NORMAL" : 5,
                        "TEXCOORD_0" : 6
                    },
                    "indices" : 7,
                    "material" : 1
                }
            ]
        },
        {
            "name" : "Cube.001",
            "primitives" : [
                {
                    "attributes" : {
                        "POSITION" : 8,
                        "NORMAL" : 9,
                        "TEXCOORD_0" : 10
                    },
                    "indices" : 11,
                    "material" : 2
                }
            ]
        }
    ],
    "textures" : [
        {
            "sampler" : 0,
            "source" : 0
        }
    ],
    "images" : [
        {
            "bufferView" : 12,
            "mimeType" : "image/jpeg",
            "name" : "DSC_9217"
        }
    ],
    "accessors" : [
        {
            "bufferView" : 0,
            "componentType" : 5126,
            "count" : 1155,
            "max" : [
                3.3436336517333984,
                1.0500825643539429,
                1.0500825643539429
            ],
            "min" : [
                -4.971986293792725,
                -1.6047639846801758,
                -1.0500825643539429
            ],
            "type" : "VEC3"
        },
        {
            "bufferView" : 1,
            "componentType" : 5126,
            "count" : 1155,
            "type" : "VEC3"
        },
        {
            "bufferView" : 2,
            "componentType" : 5126,
            "count" : 1155,
            "type" : "VEC2"
        },
        {
            "bufferView" : 3,
            "componentType" : 5123,
            "count" : 5514,
            "type" : "SCALAR"
        },
        {
            "bufferView" : 4,
            "componentType" : 5126,
            "count" : 40,
            "max" : [
                2.931582450866699,
                0.7889055609703064,
                0.788905680179596
            ],
            "min" : [
                2.723334789276123,
                -0.7889055609703064,
                -0.788905680179596
            ],
            "type" : "VEC3"
        },
        {
            "bufferView" : 5,
            "componentType" : 5126,
            "count" : 40,
            "type" : "VEC3"
        },
        {
            "bufferView" : 6,
            "componentType" : 5126,
            "count" : 40,
            "type" : "VEC2"
        },
        {
            "bufferView" : 7,
            "componentType" : 5123,
            "count" : 162,
            "type" : "SCALAR"
        },
        {
            "bufferView" : 8,
            "componentType" : 5126,
            "count" : 16,
            "max" : [
                3.0197091102600098,
                0.8002257943153381,
                0.8002254962921143
            ],
            "min" : [
                2.991692066192627,
                -0.8002257943153381,
                -0.8002254962921143
            ],
            "type" : "VEC3"
        },
        {
            "bufferView" : 9,
            "componentType" : 5126,
            "count" : 16,
            "type" : "VEC3"
        },
        {
            "bufferView" : 10,
            "componentType" : 5126,
            "count" : 16,
            "type" : "VEC2"
        },
        {
            "bufferView" : 11,
            "componentType" : 5123,
            "count" : 42,
            "type" : "SCALAR"
        }
    ],
    "bufferViews" : [
        {
            "buffer" : 0,
            "byteLength" : 13860,
            "byteOffset" : 0
        },
        {
            "buffer" : 0,
            "byteLength" : 13860,
            "byteOffset" : 13860
        },
        {
            "buffer" : 0,
            "byteLength" : 9240,
            "byteOffset" : 27720
        },
        {
            "buffer" : 0,
            "byteLength" : 11028,
            "byteOffset" : 36960
        },
        {
            "buffer" : 0,
            "byteLength" : 480,
            "byteOffset" : 47988
        },
        {
            "buffer" : 0,
            "byteLength" : 480,
            "byteOffset" : 48468
        },
        {
            "buffer" : 0,
            "byteLength" : 320,
            "byteOffset" : 48948
        },
        {
            "buffer" : 0,
            "byteLength" : 324,
            "byteOffset" : 49268
        },
        {
            "buffer" : 0,
            "byteLength" : 192,
            "byteOffset" : 49592
        },
        {
            "buffer" : 0,
            "byteLength" : 192,
            "byteOffset" : 49784
        },
        {
            "buffer" : 0,
            "byteLength" : 128,
            "byteOffset" : 49976
        },
        {
            "buffer" : 0,
            "byteLength" : 84,
            "byteOffset" : 50104
        },
        {
            "buffer" : 0,
            "byteLength" : 1159982,
            "byteOffset" : 50188
        }
    ],
    "samplers" : [
        {
            "magFilter" : 9729,
            "minFilter" : 9987
        }
    ],
    "buffers" : [
        {
            "byteLength" : 1210172,
            "uri" : "data:application/octet-stream;base64,"
        }
    ]
}
