{
    "asset" : {
        "generator" : "Khronos glTF Blender I/O v1.1.46",
        "version" : "2.0"
    },
    "scene" : 0,
    "scenes" : [
        {
            "name" : "Scene",
            "nodes" : [
                0
            ]
        }
    ],
    "nodes" : [
        {
            "mesh" : 0,
            "name" : "Cube"
        }
    ],
    "materials" : [
        {
            "doubleSided" : true,
            "emissiveFactor" : [
                0,
                0,
                0
            ],
            "name" : "Material.004",
            "pbrMetallicRoughness" : {
                "baseColorFactor" : [
                    0.33432847261428833,
                    0.33432847261428833,
                    0.33432847261428833,
                    1
                ],
                "metallicFactor" : 0.6000000238418579,
                "roughnessFactor" : 0.44716981053352356
            }
        },
        {
            "doubleSided" : true,
            "emissiveFactor" : [
                0.005740687716752291,
                0.010944029316306114,
                1
            ],
            "name" : "Material.005",
            "pbrMetallicRoughness" : {}
        },
        {
            "doubleSided" : true,
            "emissiveFactor" : [
                0,
                0,
                0
            ],
            "name" : "Material.007",
            "pbrMetallicRoughness" : {
                "baseColorFactor" : [
                    0.008076297119259834,
                    0.008076297119259834,
                    0.008076297119259834,
                    1
                ],
                "metallicFactor" : 0,
                "roughnessFactor" : 0.5
            }
        }
    ],
    "meshes" : [
        {
            "name" : "Cube.001",
            "primitives" : [
                {
                    "attributes" : {
                        "POSITION" : 0,
                        "NORMAL" : 1,
                        "TEXCOORD_0" : 2
                    },
                    "indices" : 3,
                    "material" : 0
                },
                {
                    "attributes" : {
                        "POSITION" : 4,
                        "NORMAL" : 5,
                        "TEXCOORD_0" : 6
                    },
                    "indices" : 7,
                    "material" : 1
                },
                {
                    "attributes" : {
                        "POSITION" : 8,
                        "NORMAL" : 9,
                        "TEXCOORD_0" : 10
                    },
                    "indices" : 11,
                    "material" : 2
                }
            ]
        }
    ],
    "accessors" : [
        {
            "bufferView" : 0,
            "componentType" : 5126,
            "count" : 2378,
            "max" : [
                0.8178427815437317,
                1,
                0.586232602596283
            ],
            "min" : [
                -0.8178427815437317,
                -0.4958772659301758,
                -0.5390284061431885
            ],
            "type" : "VEC3"
        },
        {
            "bufferView" : 1,
            "componentType" : 5126,
            "count" : 2378,
            "type" : "VEC3"
        },
        {
            "bufferView" : 2,
            "componentType" : 5126,
            "count" : 2378,
            "type" : "VEC2"
        },
        {
            "bufferView" : 3,
            "componentType" : 5123,
            "count" : 8010,
            "type" : "SCALAR"
        },
        {
            "bufferView" : 4,
            "componentType" : 5126,
            "count" : 62,
            "max" : [
                0.5957703590393066,
                0.8139461278915405,
                0.495585173368454
            ],
            "min" : [
                -0.5957702994346619,
                0.20000001788139343,
                0.495585173368454
            ],
            "type" : "VEC3"
        },
        {
            "bufferView" : 5,
            "componentType" : 5126,
            "count" : 62,
            "type" : "VEC3"
        },
        {
            "bufferView" : 6,
            "componentType" : 5126,
            "count" : 62,
            "type" : "VEC2"
        },
        {
            "bufferView" : 7,
            "componentType" : 5123,
            "count" : 216,
            "type" : "SCALAR"
        },
        {
            "bufferView" : 8,
            "componentType" : 5126,
            "count" : 20,
            "max" : [
                0.5706876516342163,
                -0.02151772379875183,
                0.5188210606575012
            ],
            "min" : [
                -0.06619668751955032,
                -0.17001590132713318,
                0.5188210606575012
            ],
            "type" : "VEC3"
        },
        {
            "bufferView" : 9,
            "componentType" : 5126,
            "count" : 20,
            "type" : "VEC3"
        },
        {
            "bufferView" : 10,
            "componentType" : 5126,
            "count" : 20,
            "type" : "VEC2"
        },
        {
            "bufferView" : 11,
            "componentType" : 5123,
            "count" : 48,
            "type" : "SCALAR"
        }
    ],
    "bufferViews" : [
        {
            "buffer" : 0,
            "byteLength" : 28536,
            "byteOffset" : 0
        },
        {
            "buffer" : 0,
            "byteLength" : 28536,
            "byteOffset" : 28536
        },
        {
            "buffer" : 0,
            "byteLength" : 19024,
            "byteOffset" : 57072
        },
        {
            "buffer" : 0,
            "byteLength" : 16020,
            "byteOffset" : 76096
        },
        {
            "buffer" : 0,
            "byteLength" : 744,
            "byteOffset" : 92116
        },
        {
            "buffer" : 0,
            "byteLength" : 744,
            "byteOffset" : 92860
        },
        {
            "buffer" : 0,
            "byteLength" : 496,
            "byteOffset" : 93604
        },
        {
            "buffer" : 0,
            "byteLength" : 432,
            "byteOffset" : 94100
        },
        {
            "buffer" : 0,
            "byteLength" : 240,
            "byteOffset" : 94532
        },
        {
            "buffer" : 0,
            "byteLength" : 240,
            "byteOffset" : 94772
        },
        {
            "buffer" : 0,
            "byteLength" : 160,
            "byteOffset" : 95012
        },
        {
            "buffer" : 0,
            "byteLength" : 96,
            "byteOffset" : 95172
        }
    ],
    "buffers" : [
        {
            "byteLength" : 95268,
            "uri" : "data:application/octet-stream;base64,"
        }
    ]
}
