{
    "asset" : {
        "generator" : "Khronos glTF Blender I/O v1.1.46",
        "version" : "2.0"
    },
    "scene" : 0,
    "scenes" : [
        {
            "name" : "Scene",
            "nodes" : [
                0
            ]
        }
    ],
    "nodes" : [
        {
            "mesh" : 0,
            "name" : "Cube",
            "scale" : [
                0.27916577458381653,
                1.2000000476837158,
                1.4791699647903442
            ]
        }
    ],
    "materials" : [
        {
            "doubleSided" : true,
            "emissiveFactor" : [
                0,
                0,
                0
            ],
            "name" : "Material.001",
            "pbrMetallicRoughness" : {
                "baseColorFactor" : [
                    0.21096599102020264,
                    0.19583402574062347,
                    0.17575488984584808,
                    1
                ],
                "metallicFactor" : 0.5512820482254028,
                "roughnessFactor" : 0.38461536169052124
            }
        },
        {
            "doubleSided" : true,
            "emissiveFactor" : [
                0.3227314054965973,
                0.42646074295043945,
                1
            ],
            "name" : "Material.003",
            "pbrMetallicRoughness" : {}
        }
    ],
    "meshes" : [
        {
            "name" : "Cube",
            "primitives" : [
                {
                    "attributes" : {
                        "POSITION" : 0,
                        "NORMAL" : 1,
                        "TEXCOORD_0" : 2
                    },
                    "indices" : 3,
                    "material" : 0
                },
                {
                    "attributes" : {
                        "POSITION" : 4,
                        "NORMAL" : 5,
                        "TEXCOORD_0" : 6
                    },
                    "indices" : 7,
                    "material" : 1
                }
            ]
        }
    ],
    "accessors" : [
        {
            "bufferView" : 0,
            "componentType" : 5126,
            "count" : 1687,
            "max" : [
                3.3436336517333984,
                1.0500825643539429,
                1.0500825643539429
            ],
            "min" : [
                -5.54876184463501,
                -1.6047320365905762,
                -1.0500825643539429
            ],
            "type" : "VEC3"
        },
        {
            "bufferView" : 1,
            "componentType" : 5126,
            "count" : 1687,
            "type" : "VEC3"
        },
        {
            "bufferView" : 2,
            "componentType" : 5126,
            "count" : 1687,
            "type" : "VEC2"
        },
        {
            "bufferView" : 3,
            "componentType" : 5123,
            "count" : 8274,
            "type" : "SCALAR"
        },
        {
            "bufferView" : 4,
            "componentType" : 5126,
            "count" : 36,
            "max" : [
                2.931582450866699,
                0.7889055609703064,
                0.788905680179596
            ],
            "min" : [
                2.723334789276123,
                -0.7889055609703064,
                -0.788905680179596
            ],
            "type" : "VEC3"
        },
        {
            "bufferView" : 5,
            "componentType" : 5126,
            "count" : 36,
            "type" : "VEC3"
        },
        {
            "bufferView" : 6,
            "componentType" : 5126,
            "count" : 36,
            "type" : "VEC2"
        },
        {
            "bufferView" : 7,
            "componentType" : 5123,
            "count" : 162,
            "type" : "SCALAR"
        }
    ],
    "bufferViews" : [
        {
            "buffer" : 0,
            "byteLength" : 20244,
            "byteOffset" : 0
        },
        {
            "buffer" : 0,
            "byteLength" : 20244,
            "byteOffset" : 20244
        },
        {
            "buffer" : 0,
            "byteLength" : 13496,
            "byteOffset" : 40488
        },
        {
            "buffer" : 0,
            "byteLength" : 16548,
            "byteOffset" : 53984
        },
        {
            "buffer" : 0,
            "byteLength" : 432,
            "byteOffset" : 70532
        },
        {
            "buffer" : 0,
            "byteLength" : 432,
            "byteOffset" : 70964
        },
        {
            "buffer" : 0,
            "byteLength" : 288,
            "byteOffset" : 71396
        },
        {
            "buffer" : 0,
            "byteLength" : 324,
            "byteOffset" : 71684
        }
    ],
    "buffers" : [
        {
            "byteLength" : 72008,
            "uri" : "data:application/octet-stream;base64,"
        }
    ]
}
