{
    "asset" : {
        "generator" : "Khronos glTF Blender I/O v1.5.17",
        "version" : "2.0"
    },
    "scene" : 0,
    "scenes" : [
        {
            "name" : "Scene",
            "nodes" : [
                0,
                1,
                2
            ]
        }
    ],
    "nodes" : [
        {
            "mesh" : 0,
            "name" : "Plane",
            "rotation" : [
                0,
                0,
                -0.7071067690849304,
                0.7071068286895752
            ],
            "scale" : [
                1.4337326288223267,
                1,
                1
            ],
            "translation" : [
                0,
                0.671416163444519,
                0
            ]
        },
        {
            "mesh" : 1,
            "name" : "Plane.001",
            "rotation" : [
                0.2426016628742218,
                -0.2426016479730606,
                -0.6641870737075806,
                0.6641871333122253
            ],
            "scale" : [
                1.4337326288223267,
                1,
                1
            ],
            "translation" : [
                0,
                0.671416163444519,
                0
            ]
        },
        {
            "mesh" : 2,
            "name" : "Plane.002",
            "rotation" : [
                -0.36209794878959656,
                0.36209794878959656,
                -0.6073590517044067,
                0.6073591113090515
            ],
            "scale" : [
                1.0452523231506348,
                1,
                1
            ],
            "translation" : [
                0,
                0.30995380878448486,
                0
            ]
        }
    ],
    "meshes" : [
        {
            "name" : "Plane",
            "primitives" : [
                {
                    "attributes" : {
                        "POSITION" : 0,
                        "NORMAL" : 1,
                        "TEXCOORD_0" : 2
                    },
                    "indices" : 3
                }
            ]
        },
        {
            "name" : "Plane.001",
            "primitives" : [
                {
                    "attributes" : {
                        "POSITION" : 4,
                        "NORMAL" : 5,
                        "TEXCOORD_0" : 6
                    },
                    "indices" : 3
                }
            ]
        },
        {
            "name" : "Plane.002",
            "primitives" : [
                {
                    "attributes" : {
                        "POSITION" : 7,
                        "NORMAL" : 8,
                        "TEXCOORD_0" : 9
                    },
                    "indices" : 3
                }
            ]
        }
    ],
    "accessors" : [
        {
            "bufferView" : 0,
            "componentType" : 5126,
            "count" : 81,
            "max" : [
                1,
                0,
                1
            ],
            "min" : [
                -1,
                0,
                -1
            ],
            "type" : "VEC3"
        },
        {
            "bufferView" : 1,
            "componentType" : 5126,
            "count" : 81,
            "type" : "VEC3"
        },
        {
            "bufferView" : 2,
            "componentType" : 5126,
            "count" : 81,
            "type" : "VEC2"
        },
        {
            "bufferView" : 3,
            "componentType" : 5123,
            "count" : 384,
            "type" : "SCALAR"
        },
        {
            "bufferView" : 4,
            "componentType" : 5126,
            "count" : 81,
            "max" : [
                1,
                0,
                1
            ],
            "min" : [
                -1,
                0,
                -1
            ],
            "type" : "VEC3"
        },
        {
            "bufferView" : 5,
            "componentType" : 5126,
            "count" : 81,
            "type" : "VEC3"
        },
        {
            "bufferView" : 6,
            "componentType" : 5126,
            "count" : 81,
            "type" : "VEC2"
        },
        {
            "bufferView" : 7,
            "componentType" : 5126,
            "count" : 81,
            "max" : [
                1,
                0,
                1
            ],
            "min" : [
                -1,
                0,
                -1
            ],
            "type" : "VEC3"
        },
        {
            "bufferView" : 8,
            "componentType" : 5126,
            "count" : 81,
            "type" : "VEC3"
        },
        {
            "bufferView" : 9,
            "componentType" : 5126,
            "count" : 81,
            "type" : "VEC2"
        }
    ],
    "bufferViews" : [
        {
            "buffer" : 0,
            "byteLength" : 972,
            "byteOffset" : 0
        },
        {
            "buffer" : 0,
            "byteLength" : 972,
            "byteOffset" : 972
        },
        {
            "buffer" : 0,
            "byteLength" : 648,
            "byteOffset" : 1944
        },
        {
            "buffer" : 0,
            "byteLength" : 768,
            "byteOffset" : 2592
        },
        {
            "buffer" : 0,
            "byteLength" : 972,
            "byteOffset" : 3360
        },
        {
            "buffer" : 0,
            "byteLength" : 972,
            "byteOffset" : 4332
        },
        {
            "buffer" : 0,
            "byteLength" : 648,
            "byteOffset" : 5304
        },
        {
            "buffer" : 0,
            "byteLength" : 972,
            "byteOffset" : 5952
        },
        {
            "buffer" : 0,
            "byteLength" : 972,
            "byteOffset" : 6924
        },
        {
            "buffer" : 0,
            "byteLength" : 648,
            "byteOffset" : 7896
        }
    ],
    "buffers" : [
        {
            "byteLength" : 8544,
            "uri" : "data:application/octet-stream;base64,"
        }
    ]
}
