{
    "asset" : {
        "generator" : "Khronos glTF Blender I/O v1.1.46",
        "version" : "2.0"
    },
    "scene" : 0,
    "scenes" : [
        {
            "name" : "Scene",
            "nodes" : [
                0,
                1
            ]
        }
    ],
    "nodes" : [
        {
            "mesh" : 0,
            "name" : "Cylinder"
        },
        {
            "mesh" : 1,
            "name" : "Cube",
            "translation" : [
                0,
                3.299999952316284,
                0
            ]
        }
    ],
    "animations" : [
        {
            "channels" : [
                {
                    "sampler" : 0,
                    "target" : {
                        "node" : 1,
                        "path" : "rotation"
                    }
                }
            ],
            "name" : "CubeAction",
            "samplers" : [
                {
                    "input" : 10,
                    "interpolation" : "LINEAR",
                    "output" : 11
                }
            ]
        },
        {
            "channels" : [
                {
                    "sampler" : 0,
                    "target" : {
                        "node" : 1,
                        "path" : "weights"
                    }
                }
            ],
            "name" : "KeyAction",
            "samplers" : [
                {
                    "input" : 12,
                    "interpolation" : "LINEAR",
                    "output" : 13
                }
            ]
        }
    ],
    "materials" : [
        {
            "doubleSided" : true,
            "emissiveFactor" : [
                0,
                0,
                0
            ],
            "name" : "Material.001",
            "pbrMetallicRoughness" : {
                "baseColorFactor" : [
                    0.800000011920929,
                    0.800000011920929,
                    0.800000011920929,
                    1
                ],
                "metallicFactor" : 0,
                "roughnessFactor" : 0.5
            }
        },
        {
            "doubleSided" : true,
            "emissiveFactor" : [
                0,
                0,
                0
            ],
            "name" : "Material.007",
            "pbrMetallicRoughness" : {
                "baseColorFactor" : [
                    0.008076297119259834,
                    0.008076297119259834,
                    0.008076297119259834,
                    1
                ],
                "metallicFactor" : 0,
                "roughnessFactor" : 0.5
            }
        }
    ],
    "meshes" : [
        {
            "name" : "Cylinder",
            "primitives" : [
                {
                    "attributes" : {
                        "POSITION" : 0,
                        "NORMAL" : 1,
                        "TEXCOORD_0" : 2
                    },
                    "indices" : 3,
                    "material" : 0
                }
            ]
        },
        {
            "extras" : {
                "targetNames" : [
                    "Cube.002"
                ]
            },
            "name" : "Cube.001",
            "primitives" : [
                {
                    "attributes" : {
                        "POSITION" : 4,
                        "NORMAL" : 5,
                        "TEXCOORD_0" : 6
                    },
                    "indices" : 7,
                    "material" : 1,
                    "targets" : [
                        {
                            "POSITION" : 8,
                            "NORMAL" : 9
                        }
                    ]
                }
            ],
            "weights" : [
                0
            ]
        }
    ],
    "accessors" : [
        {
            "bufferView" : 0,
            "componentType" : 5126,
            "count" : 902,
            "max" : [
                1.5242921113967896,
                2.5785672664642334,
                1.547806739807129
            ],
            "min" : [
                -1.5242923498153687,
                -2.4654319286346436,
                -1.5478068590164185
            ],
            "type" : "VEC3"
        },
        {
            "bufferView" : 1,
            "componentType" : 5126,
            "count" : 902,
            "type" : "VEC3"
        },
        {
            "bufferView" : 2,
            "componentType" : 5126,
            "count" : 902,
            "type" : "VEC2"
        },
        {
            "bufferView" : 3,
            "componentType" : 5123,
            "count" : 1560,
            "type" : "SCALAR"
        },
        {
            "bufferView" : 4,
            "componentType" : 5126,
            "count" : 5460,
            "max" : [
                0.8178427815437317,
                1,
                0.586232602596283
            ],
            "min" : [
                -0.8178427815437317,
                -0.4958772659301758,
                -0.5390284061431885
            ],
            "type" : "VEC3"
        },
        {
            "bufferView" : 5,
            "componentType" : 5126,
            "count" : 5460,
            "type" : "VEC3"
        },
        {
            "bufferView" : 6,
            "componentType" : 5126,
            "count" : 5460,
            "type" : "VEC2"
        },
        {
            "bufferView" : 7,
            "componentType" : 5123,
            "count" : 8274,
            "type" : "SCALAR"
        },
        {
            "bufferView" : 8,
            "componentType" : 5126,
            "count" : 5460,
            "max" : [
                0.7183786034584045,
                0.5274261236190796,
                0.3586485981941223
            ],
            "min" : [
                -0.7183787226676941,
                -0.5980114340782166,
                -0.5235463976860046
            ],
            "type" : "VEC3"
        },
        {
            "bufferView" : 9,
            "componentType" : 5126,
            "count" : 5460,
            "type" : "VEC3"
        },
        {
            "bufferView" : 10,
            "componentType" : 5126,
            "count" : 52,
            "max" : [
                3.2916666666666665
            ],
            "min" : [
                1.1666666666666667
            ],
            "type" : "SCALAR"
        },
        {
            "bufferView" : 11,
            "componentType" : 5126,
            "count" : 52,
            "type" : "VEC4"
        },
        {
            "bufferView" : 12,
            "componentType" : 5126,
            "count" : 43,
            "max" : [
                2.4583333333333335
            ],
            "min" : [
                0.7083333333333334
            ],
            "type" : "SCALAR"
        },
        {
            "bufferView" : 13,
            "componentType" : 5126,
            "count" : 43,
            "type" : "SCALAR"
        }
    ],
    "bufferViews" : [
        {
            "buffer" : 0,
            "byteLength" : 10824,
            "byteOffset" : 0
        },
        {
            "buffer" : 0,
            "byteLength" : 10824,
            "byteOffset" : 10824
        },
        {
            "buffer" : 0,
            "byteLength" : 7216,
            "byteOffset" : 21648
        },
        {
            "buffer" : 0,
            "byteLength" : 3120,
            "byteOffset" : 28864
        },
        {
            "buffer" : 0,
            "byteLength" : 65520,
            "byteOffset" : 31984
        },
        {
            "buffer" : 0,
            "byteLength" : 65520,
            "byteOffset" : 97504
        },
        {
            "buffer" : 0,
            "byteLength" : 43680,
            "byteOffset" : 163024
        },
        {
            "buffer" : 0,
            "byteLength" : 16548,
            "byteOffset" : 206704
        },
        {
            "buffer" : 0,
            "byteLength" : 65520,
            "byteOffset" : 223252
        },
        {
            "buffer" : 0,
            "byteLength" : 65520,
            "byteOffset" : 288772
        },
        {
            "buffer" : 0,
            "byteLength" : 208,
            "byteOffset" : 354292
        },
        {
            "buffer" : 0,
            "byteLength" : 832,
            "byteOffset" : 354500
        },
        {
            "buffer" : 0,
            "byteLength" : 172,
            "byteOffset" : 355332
        },
        {
            "buffer" : 0,
            "byteLength" : 172,
            "byteOffset" : 355504
        }
    ],
    "buffers" : [
        {
            "byteLength" : 355676,
            "uri" : "data:application/octet-stream;base64,"
        }
    ]
}
