{
    "asset" : {
        "generator" : "Khronos glTF Blender I/O v1.1.46",
        "version" : "2.0"
    },
    "scene" : 0,
    "scenes" : [
        {
            "name" : "Scene",
            "nodes" : [
                0,
                1,
                2,
                3
            ]
        }
    ],
    "nodes" : [
        {
            "mesh" : 0,
            "name" : "podium",
            "translation" : [
                -4.649776935577393,
                0,
                0
            ]
        },
        {
            "mesh" : 1,
            "name" : "Cube",
            "scale" : [
                1.1043221950531006,
                1.1043221950531006,
                1.1043221950531006
            ],
            "translation" : [
                -0.06379461288452148,
                2.998582601547241,
                0
            ]
        },
        {
            "mesh" : 2,
            "name" : "model",
            "scale" : [
                0.8999999761581421,
                0.8999999761581421,
                0.8999999761581421
            ],
            "translation" : [
                -4.649776935577393,
                3.2521400451660156,
                0
            ]
        },
        {
            "mesh" : 3,
            "name" : "model.002",
            "scale" : [
                0.8999999761581421,
                0.8999999761581421,
                0.8999999761581421
            ],
            "translation" : [
                4.540345668792725,
                3.2521400451660156,
                0
            ]
        }
    ],
    "animations" : [
        {
            "channels" : [
                {
                    "sampler" : 0,
                    "target" : {
                        "node" : 2,
                        "path" : "weights"
                    }
                }
            ],
            "name" : "Key.002Action",
            "samplers" : [
                {
                    "input" : 31,
                    "interpolation" : "LINEAR",
                    "output" : 32
                }
            ]
        },
        {
            "channels" : [
                {
                    "sampler" : 0,
                    "target" : {
                        "node" : 3,
                        "path" : "weights"
                    }
                }
            ],
            "name" : "Key.002Action.002",
            "samplers" : [
                {
                    "input" : 31,
                    "interpolation" : "LINEAR",
                    "output" : 33
                }
            ]
        }
    ],
    "materials" : [
        {
            "doubleSided" : true,
            "emissiveFactor" : [
                0,
                0,
                0
            ],
            "name" : "Material.001",
            "pbrMetallicRoughness" : {
                "baseColorFactor" : [
                    0.800000011920929,
                    0.800000011920929,
                    0.800000011920929,
                    1
                ],
                "metallicFactor" : 0,
                "roughnessFactor" : 0.1603773534297943
            }
        },
        {
            "doubleSided" : true,
            "emissiveFactor" : [
                1,
                1,
                1
            ],
            "emissiveTexture" : {
                "index" : 0,
                "texCoord" : 0
            },
            "name" : "Material.005",
            "pbrMetallicRoughness" : {}
        },
        {
            "doubleSided" : true,
            "emissiveFactor" : [
                0,
                0,
                0
            ],
            "name" : "Material.007",
            "pbrMetallicRoughness" : {
                "baseColorFactor" : [
                    0.04824632778763771,
                    0.04824632778763771,
                    0.04824632778763771,
                    1
                ],
                "metallicFactor" : 0,
                "roughnessFactor" : 0.5
            }
        },
        {
            "doubleSided" : true,
            "emissiveFactor" : [
                0,
                0,
                0
            ],
            "name" : "body",
            "pbrMetallicRoughness" : {
                "baseColorFactor" : [
                    0.14531777799129486,
                    0.1353875994682312,
                    0.3714835047721863,
                    1
                ],
                "metallicFactor" : 1,
                "roughnessFactor" : 0
            }
        },
        {
            "doubleSided" : true,
            "emissiveFactor" : [
                0,
                0,
                0
            ],
            "name" : "body.002",
            "pbrMetallicRoughness" : {
                "baseColorFactor" : [
                    0.14531777799129486,
                    0.1353875994682312,
                    0.3714835047721863,
                    1
                ],
                "metallicFactor" : 1,
                "roughnessFactor" : 0
            }
        }
    ],
    "meshes" : [
        {
            "name" : "Cylinder",
            "primitives" : [
                {
                    "attributes" : {
                        "POSITION" : 0,
                        "NORMAL" : 1,
                        "TEXCOORD_0" : 2
                    },
                    "indices" : 3,
                    "material" : 0
                }
            ]
        },
        {
            "extras" : {
                "targetNames" : [
                    "Cube.002"
                ]
            },
            "name" : "Cube.001",
            "primitives" : [
                {
                    "attributes" : {
                        "POSITION" : 4,
                        "NORMAL" : 5,
                        "TEXCOORD_0" : 6
                    },
                    "indices" : 7,
                    "material" : 1,
                    "targets" : [
                        {
                            "POSITION" : 8,
                            "NORMAL" : 9
                        }
                    ]
                },
                {
                    "attributes" : {
                        "POSITION" : 10,
                        "NORMAL" : 11,
                        "TEXCOORD_0" : 12
                    },
                    "indices" : 13,
                    "material" : 2,
                    "targets" : [
                        {
                            "POSITION" : 14,
                            "NORMAL" : 15
                        }
                    ]
                }
            ],
            "weights" : [
                1
            ]
        },
        {
            "extras" : {
                "targetNames" : [
                    "turn"
                ]
            },
            "name" : "Cube.003",
            "primitives" : [
                {
                    "attributes" : {
                        "POSITION" : 16,
                        "NORMAL" : 17,
                        "TEXCOORD_0" : 18,
                        "JOINTS_0" : 19,
                        "WEIGHTS_0" : 20
                    },
                    "indices" : 21,
                    "material" : 3,
                    "targets" : [
                        {
                            "POSITION" : 22,
                            "NORMAL" : 23
                        }
                    ]
                }
            ],
            "weights" : [
                0
            ]
        },
        {
            "extras" : {
                "targetNames" : [
                    "turn"
                ]
            },
            "name" : "Cube.002",
            "primitives" : [
                {
                    "attributes" : {
                        "POSITION" : 24,
                        "NORMAL" : 25,
                        "TEXCOORD_0" : 26,
                        "JOINTS_0" : 27,
                        "WEIGHTS_0" : 28
                    },
                    "indices" : 21,
                    "material" : 4,
                    "targets" : [
                        {
                            "POSITION" : 29,
                            "NORMAL" : 30
                        }
                    ]
                }
            ],
            "weights" : [
                0
            ]
        }
    ],
    "textures" : [
        {
            "source" : 0
        }
    ],
    "images" : [
        {
            "bufferView" : 8,
            "mimeType" : "image/png",
            "name" : "wannaenter"
        }
    ],
    "accessors" : [
        {
            "bufferView" : 0,
            "componentType" : 5126,
            "count" : 3636,
            "max" : [
                10.670045852661133,
                2.5785672664642334,
                1.547806739807129
            ],
            "min" : [
                -1.5242923498153687,
                -2.4654319286346436,
                -1.5478068590164185
            ],
            "type" : "VEC3"
        },
        {
            "bufferView" : 1,
            "componentType" : 5126,
            "count" : 3636,
            "type" : "VEC3"
        },
        {
            "bufferView" : 2,
            "componentType" : 5126,
            "count" : 3636,
            "type" : "VEC2"
        },
        {
            "bufferView" : 3,
            "componentType" : 5123,
            "count" : 6120,
            "type" : "SCALAR"
        },
        {
            "bufferView" : 4,
            "componentType" : 5126,
            "count" : 144,
            "max" : [
                0.5957703590393066,
                0.8139461278915405,
                0.495585173368454
            ],
            "min" : [
                -0.5957702994346619,
                0.20000001788139343,
                0.495585173368454
            ],
            "type" : "VEC3"
        },
        {
            "bufferView" : 5,
            "componentType" : 5126,
            "count" : 144,
            "type" : "VEC3"
        },
        {
            "bufferView" : 6,
            "componentType" : 5126,
            "count" : 144,
            "type" : "VEC2"
        },
        {
            "bufferView" : 7,
            "componentType" : 5123,
            "count" : 216,
            "type" : "SCALAR"
        },
        {
            "bufferView" : 9,
            "componentType" : 5126,
            "count" : 144,
            "max" : [
                0.37982791662216187,
                0.21637475490570068,
                0.008731454610824585
            ],
            "min" : [
                -0.3828568160533905,
                -0.062115609645843506,
                -0.36916792392730713
            ],
            "type" : "VEC3"
        },
        {
            "bufferView" : 10,
            "componentType" : 5126,
            "count" : 144,
            "type" : "VEC3"
        },
        {
            "bufferView" : 11,
            "componentType" : 5126,
            "count" : 5316,
            "max" : [
                0.8178427815437317,
                1,
                0.586232602596283
            ],
            "min" : [
                -0.8178427815437317,
                -0.4958772659301758,
                -0.5390284061431885
            ],
            "type" : "VEC3"
        },
        {
            "bufferView" : 12,
            "componentType" : 5126,
            "count" : 5316,
            "type" : "VEC3"
        },
        {
            "bufferView" : 13,
            "componentType" : 5126,
            "count" : 5316,
            "type" : "VEC2"
        },
        {
            "bufferView" : 14,
            "componentType" : 5123,
            "count" : 8058,
            "type" : "SCALAR"
        },
        {
            "bufferView" : 15,
            "componentType" : 5126,
            "count" : 5316,
            "max" : [
                0.5776367783546448,
                0.49524688720703125,
                0.3771628141403198
            ],
            "min" : [
                -0.5776368379592896,
                -0.27094531059265137,
                -0.5354859828948975
            ],
            "type" : "VEC3"
        },
        {
            "bufferView" : 16,
            "componentType" : 5126,
            "count" : 5316,
            "type" : "VEC3"
        },
        {
            "bufferView" : 17,
            "componentType" : 5126,
            "count" : 5400,
            "max" : [
                1.5362213850021362,
                1.5274261236190796,
                0.6084555983543396
            ],
            "min" : [
                -1.5362215042114258,
                -0.8867635130882263,
                -0.6501724123954773
            ],
            "type" : "VEC3"
        },
        {
            "bufferView" : 18,
            "componentType" : 5126,
            "count" : 5400,
            "type" : "VEC3"
        },
        {
            "bufferView" : 19,
            "componentType" : 5126,
            "count" : 5400,
            "type" : "VEC2"
        },
        {
            "bufferView" : 20,
            "componentType" : 5123,
            "count" : 5400,
            "type" : "VEC4"
        },
        {
            "bufferView" : 21,
            "componentType" : 5126,
            "count" : 5400,
            "type" : "VEC4"
        },
        {
            "bufferView" : 22,
            "componentType" : 5123,
            "count" : 8100,
            "type" : "SCALAR"
        },
        {
            "bufferView" : 23,
            "componentType" : 5126,
            "count" : 5400,
            "max" : [
                0.47037389874458313,
                0.09814566373825073,
                0.6018314361572266
            ],
            "min" : [
                -0.4322397708892822,
                -0.10055559873580933,
                -0.32379090785980225
            ],
            "type" : "VEC3"
        },
        {
            "bufferView" : 24,
            "componentType" : 5126,
            "count" : 5400,
            "type" : "VEC3"
        },
        {
            "bufferView" : 25,
            "componentType" : 5126,
            "count" : 5400,
            "max" : [
                1.5362213850021362,
                1.5274261236190796,
                0.6084555983543396
            ],
            "min" : [
                -1.5362215042114258,
                -0.8867635130882263,
                -0.6501724123954773
            ],
            "type" : "VEC3"
        },
        {
            "bufferView" : 26,
            "componentType" : 5126,
            "count" : 5400,
            "type" : "VEC3"
        },
        {
            "bufferView" : 27,
            "componentType" : 5126,
            "count" : 5400,
            "type" : "VEC2"
        },
        {
            "bufferView" : 28,
            "componentType" : 5123,
            "count" : 5400,
            "type" : "VEC4"
        },
        {
            "bufferView" : 29,
            "componentType" : 5126,
            "count" : 5400,
            "type" : "VEC4"
        },
        {
            "bufferView" : 30,
            "componentType" : 5126,
            "count" : 5400,
            "max" : [
                0.47037389874458313,
                0.09814566373825073,
                0.6018314361572266
            ],
            "min" : [
                -0.4322397708892822,
                -0.10055559873580933,
                -0.32379090785980225
            ],
            "type" : "VEC3"
        },
        {
            "bufferView" : 31,
            "componentType" : 5126,
            "count" : 5400,
            "type" : "VEC3"
        },
        {
            "bufferView" : 32,
            "componentType" : 5126,
            "count" : 51,
            "max" : [
                2.0833333333333335
            ],
            "min" : [
                0
            ],
            "type" : "SCALAR"
        },
        {
            "bufferView" : 33,
            "componentType" : 5126,
            "count" : 51,
            "type" : "SCALAR"
        },
        {
            "bufferView" : 34,
            "componentType" : 5126,
            "count" : 51,
            "type" : "SCALAR"
        }
    ],
    "bufferViews" : [
        {
            "buffer" : 0,
            "byteLength" : 43632,
            "byteOffset" : 0
        },
        {
            "buffer" : 0,
            "byteLength" : 43632,
            "byteOffset" : 43632
        },
        {
            "buffer" : 0,
            "byteLength" : 29088,
            "byteOffset" : 87264
        },
        {
            "buffer" : 0,
            "byteLength" : 12240,
            "byteOffset" : 116352
        },
        {
            "buffer" : 0,
            "byteLength" : 1728,
            "byteOffset" : 128592
        },
        {
            "buffer" : 0,
            "byteLength" : 1728,
            "byteOffset" : 130320
        },
        {
            "buffer" : 0,
            "byteLength" : 1152,
            "byteOffset" : 132048
        },
        {
            "buffer" : 0,
            "byteLength" : 432,
            "byteOffset" : 133200
        },
        {
            "buffer" : 0,
            "byteLength" : 211552,
            "byteOffset" : 133632
        },
        {
            "buffer" : 0,
            "byteLength" : 1728,
            "byteOffset" : 345184
        },
        {
            "buffer" : 0,
            "byteLength" : 1728,
            "byteOffset" : 346912
        },
        {
            "buffer" : 0,
            "byteLength" : 63792,
            "byteOffset" : 348640
        },
        {
            "buffer" : 0,
            "byteLength" : 63792,
            "byteOffset" : 412432
        },
        {
            "buffer" : 0,
            "byteLength" : 42528,
            "byteOffset" : 476224
        },
        {
            "buffer" : 0,
            "byteLength" : 16116,
            "byteOffset" : 518752
        },
        {
            "buffer" : 0,
            "byteLength" : 63792,
            "byteOffset" : 534868
        },
        {
            "buffer" : 0,
            "byteLength" : 63792,
            "byteOffset" : 598660
        },
        {
            "buffer" : 0,
            "byteLength" : 64800,
            "byteOffset" : 662452
        },
        {
            "buffer" : 0,
            "byteLength" : 64800,
            "byteOffset" : 727252
        },
        {
            "buffer" : 0,
            "byteLength" : 43200,
            "byteOffset" : 792052
        },
        {
            "buffer" : 0,
            "byteLength" : 43200,
            "byteOffset" : 835252
        },
        {
            "buffer" : 0,
            "byteLength" : 86400,
            "byteOffset" : 878452
        },
        {
            "buffer" : 0,
            "byteLength" : 16200,
            "byteOffset" : 964852
        },
        {
            "buffer" : 0,
            "byteLength" : 64800,
            "byteOffset" : 981052
        },
        {
            "buffer" : 0,
            "byteLength" : 64800,
            "byteOffset" : 1045852
        },
        {
            "buffer" : 0,
            "byteLength" : 64800,
            "byteOffset" : 1110652
        },
        {
            "buffer" : 0,
            "byteLength" : 64800,
            "byteOffset" : 1175452
        },
        {
            "buffer" : 0,
            "byteLength" : 43200,
            "byteOffset" : 1240252
        },
        {
            "buffer" : 0,
            "byteLength" : 43200,
            "byteOffset" : 1283452
        },
        {
            "buffer" : 0,
            "byteLength" : 86400,
            "byteOffset" : 1326652
        },
        {
            "buffer" : 0,
            "byteLength" : 64800,
            "byteOffset" : 1413052
        },
        {
            "buffer" : 0,
            "byteLength" : 64800,
            "byteOffset" : 1477852
        },
        {
            "buffer" : 0,
            "byteLength" : 204,
            "byteOffset" : 1542652
        },
        {
            "buffer" : 0,
            "byteLength" : 204,
            "byteOffset" : 1542856
        },
        {
            "buffer" : 0,
            "byteLength" : 204,
            "byteOffset" : 1543060
        }
    ],
    "buffers" : [
        {
            "byteLength" : 1543264,
            "uri" : "data:application/octet-stream;base64,"
        }
    ]
}
