{
    "asset" : {
        "generator" : "Khronos glTF Blender I/O v1.1.46",
        "version" : "2.0"
    },
    "scene" : 0,
    "scenes" : [
        {
            "name" : "Scene",
            "nodes" : [
                0,
                1,
                2,
                3,
                4
            ]
        }
    ],
    "nodes" : [
        {
            "mesh" : 0,
            "name" : "shelf",
            "rotation" : [
                0,
                0.7071067690849304,
                0,
                0.7071067690849304
            ],
            "scale" : [
                1,
                0.10000002384185791,
                2.979663848876953
            ]
        },
        {
            "mesh" : 1,
            "name" : "computer",
            "scale" : [
                0.826831579208374,
                0.826831579208374,
                0.826831579208374
            ],
            "translation" : [
                -1.5,
                2.9839999675750732,
                0
            ]
        },
        {
            "mesh" : 2,
            "name" : "model2",
            "scale" : [
                0.800000011920929,
                0.800000011920929,
                0.800000011920929
            ],
            "translation" : [
                1.399999976158142,
                0.7099999785423279,
                0
            ]
        },
        {
            "mesh" : 3,
            "name" : "model",
            "scale" : [
                0.800000011920929,
                0.800000011920929,
                0.800000011920929
            ],
            "translation" : [
                -1.399999976158142,
                0.7136833071708679,
                0
            ]
        },
        {
            "mesh" : 4,
            "name" : "model3",
            "scale" : [
                0.800000011920929,
                0.800000011920929,
                0.800000011920929
            ],
            "translation" : [
                1.399999976158142,
                3.2136833667755127,
                0
            ]
        }
    ],
    "materials" : [
        {
            "doubleSided" : true,
            "emissiveFactor" : [
                0,
                0,
                0
            ],
            "name" : "Material",
            "pbrMetallicRoughness" : {
                "baseColorFactor" : [
                    0.800000011920929,
                    0.800000011920929,
                    0.800000011920929,
                    1
                ],
                "metallicFactor" : 0,
                "roughnessFactor" : 0.4000000059604645
            }
        },
        {
            "doubleSided" : true,
            "emissiveFactor" : [
                0,
                0,
                0
            ],
            "name" : "Material.010",
            "pbrMetallicRoughness" : {
                "baseColorFactor" : [
                    0.800000011920929,
                    0.800000011920929,
                    0.800000011920929,
                    1
                ],
                "metallicFactor" : 0,
                "roughnessFactor" : 0.4000000059604645
            }
        },
        {
            "doubleSided" : true,
            "emissiveFactor" : [
                1,
                1,
                1
            ],
            "emissiveTexture" : {
                "index" : 0,
                "texCoord" : 0
            },
            "name" : "Material.005",
            "pbrMetallicRoughness" : {}
        },
        {
            "doubleSided" : true,
            "emissiveFactor" : [
                0,
                0,
                0
            ],
            "name" : "Material.007",
            "pbrMetallicRoughness" : {
                "baseColorFactor" : [
                    0.24955908954143524,
                    0.24955908954143524,
                    0.24955908954143524,
                    1
                ],
                "metallicFactor" : 0.8717948794364929,
                "roughnessFactor" : 0.20000000298023224
            }
        },
        {
            "doubleSided" : true,
            "emissiveFactor" : [
                0,
                0,
                0
            ],
            "name" : "body.005",
            "pbrMetallicRoughness" : {
                "baseColorFactor" : [
                    0.16002866625785828,
                    0.16002866625785828,
                    0.16002866625785828,
                    1
                ],
                "metallicFactor" : 1,
                "roughnessFactor" : 0
            }
        },
        {
            "doubleSided" : true,
            "emissiveFactor" : [
                0,
                0,
                0
            ],
            "name" : "body.004",
            "pbrMetallicRoughness" : {
                "baseColorFactor" : [
                    0.16002866625785828,
                    0.16002866625785828,
                    0.16002866625785828,
                    1
                ],
                "metallicFactor" : 1,
                "roughnessFactor" : 0
            }
        },
        {
            "doubleSided" : true,
            "emissiveFactor" : [
                0,
                0,
                0
            ],
            "name" : "body.006",
            "pbrMetallicRoughness" : {
                "baseColorFactor" : [
                    0.16002866625785828,
                    0.16002866625785828,
                    0.16002866625785828,
                    1
                ],
                "metallicFactor" : 1,
                "roughnessFactor" : 0
            }
        }
    ],
    "meshes" : [
        {
            "name" : "Cube",
            "primitives" : [
                {
                    "attributes" : {
                        "POSITION" : 0,
                        "NORMAL" : 1,
                        "TEXCOORD_0" : 2
                    },
                    "indices" : 3,
                    "material" : 0
                },
                {
                    "attributes" : {
                        "POSITION" : 4,
                        "NORMAL" : 5,
                        "TEXCOORD_0" : 6
                    },
                    "indices" : 3,
                    "material" : 1
                }
            ]
        },
        {
            "extras" : {
                "targetNames" : [
                    "Cube.002"
                ]
            },
            "name" : "Cube.001",
            "primitives" : [
                {
                    "attributes" : {
                        "POSITION" : 7,
                        "NORMAL" : 8,
                        "TEXCOORD_0" : 9
                    },
                    "indices" : 10,
                    "material" : 2,
                    "targets" : [
                        {
                            "POSITION" : 11,
                            "NORMAL" : 12
                        }
                    ]
                },
                {
                    "attributes" : {
                        "POSITION" : 13,
                        "NORMAL" : 14,
                        "TEXCOORD_0" : 15
                    },
                    "indices" : 16,
                    "material" : 3,
                    "targets" : [
                        {
                            "POSITION" : 17,
                            "NORMAL" : 18
                        }
                    ]
                }
            ],
            "weights" : [
                0
            ]
        },
        {
            "extras" : {
                "targetNames" : [
                    "turn"
                ]
            },
            "name" : "Cube.002",
            "primitives" : [
                {
                    "attributes" : {
                        "POSITION" : 19,
                        "NORMAL" : 20,
                        "TEXCOORD_0" : 21,
                        "JOINTS_0" : 22,
                        "WEIGHTS_0" : 23
                    },
                    "indices" : 24,
                    "material" : 4,
                    "targets" : [
                        {
                            "POSITION" : 25,
                            "NORMAL" : 26
                        }
                    ]
                }
            ],
            "weights" : [
                0
            ]
        },
        {
            "extras" : {
                "targetNames" : [
                    "Key 1"
                ]
            },
            "name" : "Cube.010",
            "primitives" : [
                {
                    "attributes" : {
                        "POSITION" : 27,
                        "NORMAL" : 28,
                        "TEXCOORD_0" : 29,
                        "JOINTS_0" : 30,
                        "WEIGHTS_0" : 31
                    },
                    "indices" : 24,
                    "material" : 5,
                    "targets" : [
                        {
                            "POSITION" : 32,
                            "NORMAL" : 33
                        }
                    ]
                }
            ],
            "weights" : [
                0
            ]
        },
        {
            "extras" : {
                "targetNames" : [
                    "Key 1"
                ]
            },
            "name" : "Cube.005",
            "primitives" : [
                {
                    "attributes" : {
                        "POSITION" : 34,
                        "NORMAL" : 35,
                        "TEXCOORD_0" : 36,
                        "JOINTS_0" : 37,
                        "WEIGHTS_0" : 38
                    },
                    "indices" : 24,
                    "material" : 6,
                    "targets" : [
                        {
                            "POSITION" : 39,
                            "NORMAL" : 40
                        }
                    ]
                }
            ],
            "weights" : [
                0
            ]
        }
    ],
    "textures" : [
        {
            "source" : 0
        }
    ],
    "images" : [
        {
            "bufferView" : 11,
            "mimeType" : "image/png",
            "name" : "haveaniceday"
        }
    ],
    "accessors" : [
        {
            "bufferView" : 0,
            "componentType" : 5126,
            "count" : 96,
            "max" : [
                1,
                1,
                1
            ],
            "min" : [
                -1,
                -1,
                -1
            ],
            "type" : "VEC3"
        },
        {
            "bufferView" : 1,
            "componentType" : 5126,
            "count" : 96,
            "type" : "VEC3"
        },
        {
            "bufferView" : 2,
            "componentType" : 5126,
            "count" : 96,
            "type" : "VEC2"
        },
        {
            "bufferView" : 3,
            "componentType" : 5123,
            "count" : 132,
            "type" : "SCALAR"
        },
        {
            "bufferView" : 4,
            "componentType" : 5126,
            "count" : 96,
            "max" : [
                1,
                25.99999237060547,
                1
            ],
            "min" : [
                -1,
                23.99999237060547,
                -1
            ],
            "type" : "VEC3"
        },
        {
            "bufferView" : 5,
            "componentType" : 5126,
            "count" : 96,
            "type" : "VEC3"
        },
        {
            "bufferView" : 6,
            "componentType" : 5126,
            "count" : 96,
            "type" : "VEC2"
        },
        {
            "bufferView" : 7,
            "componentType" : 5126,
            "count" : 144,
            "max" : [
                0.5957703590393066,
                0.8139461278915405,
                0.495585173368454
            ],
            "min" : [
                -0.5957702994346619,
                0.20000001788139343,
                0.495585173368454
            ],
            "type" : "VEC3"
        },
        {
            "bufferView" : 8,
            "componentType" : 5126,
            "count" : 144,
            "type" : "VEC3"
        },
        {
            "bufferView" : 9,
            "componentType" : 5126,
            "count" : 144,
            "type" : "VEC2"
        },
        {
            "bufferView" : 10,
            "componentType" : 5123,
            "count" : 216,
            "type" : "SCALAR"
        },
        {
            "bufferView" : 12,
            "componentType" : 5126,
            "count" : 144,
            "max" : [
                0.3641741871833801,
                0.45683741569519043,
                0.11287042498588562
            ],
            "min" : [
                -0.369240939617157,
                0.06313431262969971,
                -0.35692787170410156
            ],
            "type" : "VEC3"
        },
        {
            "bufferView" : 13,
            "componentType" : 5126,
            "count" : 144,
            "type" : "VEC3"
        },
        {
            "bufferView" : 14,
            "componentType" : 5126,
            "count" : 5316,
            "max" : [
                0.8178427815437317,
                1,
                0.586232602596283
            ],
            "min" : [
                -0.8178427815437317,
                -0.4958772659301758,
                -0.5390284061431885
            ],
            "type" : "VEC3"
        },
        {
            "bufferView" : 15,
            "componentType" : 5126,
            "count" : 5316,
            "type" : "VEC3"
        },
        {
            "bufferView" : 16,
            "componentType" : 5126,
            "count" : 5316,
            "type" : "VEC2"
        },
        {
            "bufferView" : 17,
            "componentType" : 5123,
            "count" : 8058,
            "type" : "SCALAR"
        },
        {
            "bufferView" : 18,
            "componentType" : 5126,
            "count" : 5316,
            "max" : [
                0.7183786034584045,
                0.8213087320327759,
                0.36850520968437195
            ],
            "min" : [
                -0.7183787226676941,
                -0.3041287660598755,
                -0.5321531891822815
            ],
            "type" : "VEC3"
        },
        {
            "bufferView" : 19,
            "componentType" : 5126,
            "count" : 5316,
            "type" : "VEC3"
        },
        {
            "bufferView" : 20,
            "componentType" : 5126,
            "count" : 5400,
            "max" : [
                1.5362213850021362,
                1.5274261236190796,
                0.6084555983543396
            ],
            "min" : [
                -1.5362215042114258,
                -0.8867635130882263,
                -0.6501724123954773
            ],
            "type" : "VEC3"
        },
        {
            "bufferView" : 21,
            "componentType" : 5126,
            "count" : 5400,
            "type" : "VEC3"
        },
        {
            "bufferView" : 22,
            "componentType" : 5126,
            "count" : 5400,
            "type" : "VEC2"
        },
        {
            "bufferView" : 23,
            "componentType" : 5123,
            "count" : 5400,
            "type" : "VEC4"
        },
        {
            "bufferView" : 24,
            "componentType" : 5126,
            "count" : 5400,
            "type" : "VEC4"
        },
        {
            "bufferView" : 25,
            "componentType" : 5123,
            "count" : 8100,
            "type" : "SCALAR"
        },
        {
            "bufferView" : 26,
            "componentType" : 5126,
            "count" : 5400,
            "max" : [
                0.3258497714996338,
                2.9802322387695312e-08,
                0.3392936587333679
            ],
            "min" : [
                -0.37268710136413574,
                -2.9802322387695312e-08,
                -0.3340746760368347
            ],
            "type" : "VEC3"
        },
        {
            "bufferView" : 27,
            "componentType" : 5126,
            "count" : 5400,
            "type" : "VEC3"
        },
        {
            "bufferView" : 28,
            "componentType" : 5126,
            "count" : 5400,
            "max" : [
                1.5362213850021362,
                1.5274261236190796,
                0.6084555983543396
            ],
            "min" : [
                -1.5362215042114258,
                -0.8867635130882263,
                -0.6501724123954773
            ],
            "type" : "VEC3"
        },
        {
            "bufferView" : 29,
            "componentType" : 5126,
            "count" : 5400,
            "type" : "VEC3"
        },
        {
            "bufferView" : 30,
            "componentType" : 5126,
            "count" : 5400,
            "type" : "VEC2"
        },
        {
            "bufferView" : 31,
            "componentType" : 5123,
            "count" : 5400,
            "type" : "VEC4"
        },
        {
            "bufferView" : 32,
            "componentType" : 5126,
            "count" : 5400,
            "type" : "VEC4"
        },
        {
            "bufferView" : 33,
            "componentType" : 5126,
            "count" : 5400,
            "max" : [
                7.450580596923828e-09,
                0.11598154902458191,
                0.8349461555480957
            ],
            "min" : [
                -5.960464477539063e-08,
                -0.35667139291763306,
                -0.06758543848991394
            ],
            "type" : "VEC3"
        },
        {
            "bufferView" : 34,
            "componentType" : 5126,
            "count" : 5400,
            "type" : "VEC3"
        },
        {
            "bufferView" : 35,
            "componentType" : 5126,
            "count" : 5400,
            "max" : [
                1.5362213850021362,
                1.5274261236190796,
                0.6084555983543396
            ],
            "min" : [
                -1.5362215042114258,
                -0.8867635130882263,
                -0.6501724123954773
            ],
            "type" : "VEC3"
        },
        {
            "bufferView" : 36,
            "componentType" : 5126,
            "count" : 5400,
            "type" : "VEC3"
        },
        {
            "bufferView" : 37,
            "componentType" : 5126,
            "count" : 5400,
            "type" : "VEC2"
        },
        {
            "bufferView" : 38,
            "componentType" : 5123,
            "count" : 5400,
            "type" : "VEC4"
        },
        {
            "bufferView" : 39,
            "componentType" : 5126,
            "count" : 5400,
            "type" : "VEC4"
        },
        {
            "bufferView" : 40,
            "componentType" : 5126,
            "count" : 5400,
            "max" : [
                7.450580596923828e-09,
                0.11598154902458191,
                0.8349461555480957
            ],
            "min" : [
                -5.960464477539063e-08,
                -0.35667139291763306,
                -0.06758543848991394
            ],
            "type" : "VEC3"
        },
        {
            "bufferView" : 41,
            "componentType" : 5126,
            "count" : 5400,
            "type" : "VEC3"
        }
    ],
    "bufferViews" : [
        {
            "buffer" : 0,
            "byteLength" : 1152,
            "byteOffset" : 0
        },
        {
            "buffer" : 0,
            "byteLength" : 1152,
            "byteOffset" : 1152
        },
        {
            "buffer" : 0,
            "byteLength" : 768,
            "byteOffset" : 2304
        },
        {
            "buffer" : 0,
            "byteLength" : 264,
            "byteOffset" : 3072
        },
        {
            "buffer" : 0,
            "byteLength" : 1152,
            "byteOffset" : 3336
        },
        {
            "buffer" : 0,
            "byteLength" : 1152,
            "byteOffset" : 4488
        },
        {
            "buffer" : 0,
            "byteLength" : 768,
            "byteOffset" : 5640
        },
        {
            "buffer" : 0,
            "byteLength" : 1728,
            "byteOffset" : 6408
        },
        {
            "buffer" : 0,
            "byteLength" : 1728,
            "byteOffset" : 8136
        },
        {
            "buffer" : 0,
            "byteLength" : 1152,
            "byteOffset" : 9864
        },
        {
            "buffer" : 0,
            "byteLength" : 432,
            "byteOffset" : 11016
        },
        {
            "buffer" : 0,
            "byteLength" : 949755,
            "byteOffset" : 11448
        },
        {
            "buffer" : 0,
            "byteLength" : 1728,
            "byteOffset" : 961204
        },
        {
            "buffer" : 0,
            "byteLength" : 1728,
            "byteOffset" : 962932
        },
        {
            "buffer" : 0,
            "byteLength" : 63792,
            "byteOffset" : 964660
        },
        {
            "buffer" : 0,
            "byteLength" : 63792,
            "byteOffset" : 1028452
        },
        {
            "buffer" : 0,
            "byteLength" : 42528,
            "byteOffset" : 1092244
        },
        {
            "buffer" : 0,
            "byteLength" : 16116,
            "byteOffset" : 1134772
        },
        {
            "buffer" : 0,
            "byteLength" : 63792,
            "byteOffset" : 1150888
        },
        {
            "buffer" : 0,
            "byteLength" : 63792,
            "byteOffset" : 1214680
        },
        {
            "buffer" : 0,
            "byteLength" : 64800,
            "byteOffset" : 1278472
        },
        {
            "buffer" : 0,
            "byteLength" : 64800,
            "byteOffset" : 1343272
        },
        {
            "buffer" : 0,
            "byteLength" : 43200,
            "byteOffset" : 1408072
        },
        {
            "buffer" : 0,
            "byteLength" : 43200,
            "byteOffset" : 1451272
        },
        {
            "buffer" : 0,
            "byteLength" : 86400,
            "byteOffset" : 1494472
        },
        {
            "buffer" : 0,
            "byteLength" : 16200,
            "byteOffset" : 1580872
        },
        {
            "buffer" : 0,
            "byteLength" : 64800,
            "byteOffset" : 1597072
        },
        {
            "buffer" : 0,
            "byteLength" : 64800,
            "byteOffset" : 1661872
        },
        {
            "buffer" : 0,
            "byteLength" : 64800,
            "byteOffset" : 1726672
        },
        {
            "buffer" : 0,
            "byteLength" : 64800,
            "byteOffset" : 1791472
        },
        {
            "buffer" : 0,
            "byteLength" : 43200,
            "byteOffset" : 1856272
        },
        {
            "buffer" : 0,
            "byteLength" : 43200,
            "byteOffset" : 1899472
        },
        {
            "buffer" : 0,
            "byteLength" : 86400,
            "byteOffset" : 1942672
        },
        {
            "buffer" : 0,
            "byteLength" : 64800,
            "byteOffset" : 2029072
        },
        {
            "buffer" : 0,
            "byteLength" : 64800,
            "byteOffset" : 2093872
        },
        {
            "buffer" : 0,
            "byteLength" : 64800,
            "byteOffset" : 2158672
        },
        {
            "buffer" : 0,
            "byteLength" : 64800,
            "byteOffset" : 2223472
        },
        {
            "buffer" : 0,
            "byteLength" : 43200,
            "byteOffset" : 2288272
        },
        {
            "buffer" : 0,
            "byteLength" : 43200,
            "byteOffset" : 2331472
        },
        {
            "buffer" : 0,
            "byteLength" : 86400,
            "byteOffset" : 2374672
        },
        {
            "buffer" : 0,
            "byteLength" : 64800,
            "byteOffset" : 2461072
        },
        {
            "buffer" : 0,
            "byteLength" : 64800,
            "byteOffset" : 2525872
        }
    ],
    "buffers" : [
        {
            "byteLength" : 2590672,
            "uri" : "data:application/octet-stream;base64,"
        }
    ]
}
