{
    "asset" : {
        "generator" : "Khronos glTF Blender I/O v1.1.46",
        "version" : "2.0"
    },
    "scene" : 0,
    "scenes" : [
        {
            "name" : "Scene",
            "nodes" : [
                0,
                1,
                2,
                3
            ]
        }
    ],
    "nodes" : [
        {
            "mesh" : 0,
            "name" : "shelf",
            "rotation" : [
                0,
                0.7071067690849304,
                0,
                0.7071067690849304
            ],
            "scale" : [
                1,
                0.10000002384185791,
                5.47597074508667
            ]
        },
        {
            "mesh" : 1,
            "name" : "model",
            "scale" : [
                0.826831579208374,
                0.826831579208374,
                0.826831579208374
            ],
            "translation" : [
                0,
                0.4840046763420105,
                0
            ]
        },
        {
            "mesh" : 2,
            "name" : "model2",
            "scale" : [
                0.800000011920929,
                0.800000011920929,
                0.800000011920929
            ],
            "translation" : [
                3.5999999046325684,
                0.7585307955741882,
                0
            ]
        },
        {
            "mesh" : 3,
            "name" : "model3",
            "scale" : [
                0.800000011920929,
                0.800000011920929,
                0.800000011920929
            ],
            "translation" : [
                -3.5999999046325684,
                0.7515723705291748,
                0
            ]
        }
    ],
    "animations" : [
        {
            "channels" : [
                {
                    "sampler" : 0,
                    "target" : {
                        "node" : 3,
                        "path" : "weights"
                    }
                }
            ],
            "name" : "Key.002Action.001",
            "samplers" : [
                {
                    "input" : 25,
                    "interpolation" : "LINEAR",
                    "output" : 26
                }
            ]
        }
    ],
    "materials" : [
        {
            "doubleSided" : true,
            "emissiveFactor" : [
                0,
                0,
                0
            ],
            "name" : "Material",
            "pbrMetallicRoughness" : {
                "baseColorFactor" : [
                    0.800000011920929,
                    0.800000011920929,
                    0.800000011920929,
                    1
                ],
                "metallicFactor" : 0,
                "roughnessFactor" : 0.4000000059604645
            }
        },
        {
            "doubleSided" : true,
            "emissiveFactor" : [
                0,
                0,
                0
            ],
            "name" : "Material.007",
            "pbrMetallicRoughness" : {
                "baseColorFactor" : [
                    0.24955908954143524,
                    0.24955908954143524,
                    0.24955908954143524,
                    1
                ],
                "metallicFactor" : 0.8717948794364929,
                "roughnessFactor" : 0.20000000298023224
            }
        },
        {
            "doubleSided" : true,
            "emissiveFactor" : [
                0,
                0,
                0
            ],
            "name" : "body.001",
            "pbrMetallicRoughness" : {
                "baseColorFactor" : [
                    0.16002866625785828,
                    0.16002866625785828,
                    0.16002866625785828,
                    1
                ],
                "metallicFactor" : 1,
                "roughnessFactor" : 0
            }
        },
        {
            "doubleSided" : true,
            "emissiveFactor" : [
                0,
                0,
                0
            ],
            "name" : "body.002",
            "pbrMetallicRoughness" : {
                "baseColorFactor" : [
                    0.16002866625785828,
                    0.16002866625785828,
                    0.16002866625785828,
                    1
                ],
                "metallicFactor" : 1,
                "roughnessFactor" : 0
            }
        }
    ],
    "meshes" : [
        {
            "name" : "Cube",
            "primitives" : [
                {
                    "attributes" : {
                        "POSITION" : 0,
                        "NORMAL" : 1,
                        "TEXCOORD_0" : 2
                    },
                    "indices" : 3,
                    "material" : 0
                }
            ]
        },
        {
            "extras" : {
                "targetNames" : [
                    "Cube.002"
                ]
            },
            "name" : "Cube.001",
            "primitives" : [
                {
                    "attributes" : {
                        "POSITION" : 4,
                        "NORMAL" : 5,
                        "TEXCOORD_0" : 6
                    },
                    "indices" : 7,
                    "material" : 1,
                    "targets" : [
                        {
                            "POSITION" : 8,
                            "NORMAL" : 9
                        }
                    ]
                }
            ],
            "weights" : [
                0
            ]
        },
        {
            "extras" : {
                "targetNames" : [
                    "turn"
                ]
            },
            "name" : "Cube.004",
            "primitives" : [
                {
                    "attributes" : {
                        "POSITION" : 10,
                        "NORMAL" : 11,
                        "TEXCOORD_0" : 12,
                        "JOINTS_0" : 13,
                        "WEIGHTS_0" : 14
                    },
                    "indices" : 15,
                    "material" : 2,
                    "targets" : [
                        {
                            "POSITION" : 16,
                            "NORMAL" : 17
                        }
                    ]
                }
            ],
            "weights" : [
                0
            ]
        },
        {
            "extras" : {
                "targetNames" : [
                    "turn"
                ]
            },
            "name" : "Cube.009",
            "primitives" : [
                {
                    "attributes" : {
                        "POSITION" : 18,
                        "NORMAL" : 19,
                        "TEXCOORD_0" : 20,
                        "JOINTS_0" : 21,
                        "WEIGHTS_0" : 22
                    },
                    "indices" : 15,
                    "material" : 3,
                    "targets" : [
                        {
                            "POSITION" : 23,
                            "NORMAL" : 24
                        }
                    ]
                }
            ],
            "weights" : [
                0
            ]
        }
    ],
    "accessors" : [
        {
            "bufferView" : 0,
            "componentType" : 5126,
            "count" : 96,
            "max" : [
                1,
                1,
                1
            ],
            "min" : [
                -1,
                -1,
                -1
            ],
            "type" : "VEC3"
        },
        {
            "bufferView" : 1,
            "componentType" : 5126,
            "count" : 96,
            "type" : "VEC3"
        },
        {
            "bufferView" : 2,
            "componentType" : 5126,
            "count" : 96,
            "type" : "VEC2"
        },
        {
            "bufferView" : 3,
            "componentType" : 5123,
            "count" : 132,
            "type" : "SCALAR"
        },
        {
            "bufferView" : 4,
            "componentType" : 5126,
            "count" : 5460,
            "max" : [
                0.8178427815437317,
                1,
                0.586232602596283
            ],
            "min" : [
                -0.8178427815437317,
                -0.4958772659301758,
                -0.5390284061431885
            ],
            "type" : "VEC3"
        },
        {
            "bufferView" : 5,
            "componentType" : 5126,
            "count" : 5460,
            "type" : "VEC3"
        },
        {
            "bufferView" : 6,
            "componentType" : 5126,
            "count" : 5460,
            "type" : "VEC2"
        },
        {
            "bufferView" : 7,
            "componentType" : 5123,
            "count" : 8274,
            "type" : "SCALAR"
        },
        {
            "bufferView" : 8,
            "componentType" : 5126,
            "count" : 5460,
            "max" : [
                0.7183786034584045,
                0.8213087320327759,
                0.36850520968437195
            ],
            "min" : [
                -0.7183787226676941,
                -0.3041287660598755,
                -0.5321531891822815
            ],
            "type" : "VEC3"
        },
        {
            "bufferView" : 9,
            "componentType" : 5126,
            "count" : 5460,
            "type" : "VEC3"
        },
        {
            "bufferView" : 10,
            "componentType" : 5126,
            "count" : 5400,
            "max" : [
                1.5362213850021362,
                1.5274261236190796,
                0.6084555983543396
            ],
            "min" : [
                -1.5362215042114258,
                -0.8867635130882263,
                -0.6501724123954773
            ],
            "type" : "VEC3"
        },
        {
            "bufferView" : 11,
            "componentType" : 5126,
            "count" : 5400,
            "type" : "VEC3"
        },
        {
            "bufferView" : 12,
            "componentType" : 5126,
            "count" : 5400,
            "type" : "VEC2"
        },
        {
            "bufferView" : 13,
            "componentType" : 5123,
            "count" : 5400,
            "type" : "VEC4"
        },
        {
            "bufferView" : 14,
            "componentType" : 5126,
            "count" : 5400,
            "type" : "VEC4"
        },
        {
            "bufferView" : 15,
            "componentType" : 5123,
            "count" : 8100,
            "type" : "SCALAR"
        },
        {
            "bufferView" : 16,
            "componentType" : 5126,
            "count" : 5400,
            "max" : [
                0.3258497714996338,
                2.9802322387695312e-08,
                0.3392936587333679
            ],
            "min" : [
                -0.37268710136413574,
                -2.9802322387695312e-08,
                -0.3340746760368347
            ],
            "type" : "VEC3"
        },
        {
            "bufferView" : 17,
            "componentType" : 5126,
            "count" : 5400,
            "type" : "VEC3"
        },
        {
            "bufferView" : 18,
            "componentType" : 5126,
            "count" : 5400,
            "max" : [
                1.5362213850021362,
                1.5274261236190796,
                0.6084555983543396
            ],
            "min" : [
                -1.5362215042114258,
                -0.8867635130882263,
                -0.6501724123954773
            ],
            "type" : "VEC3"
        },
        {
            "bufferView" : 19,
            "componentType" : 5126,
            "count" : 5400,
            "type" : "VEC3"
        },
        {
            "bufferView" : 20,
            "componentType" : 5126,
            "count" : 5400,
            "type" : "VEC2"
        },
        {
            "bufferView" : 21,
            "componentType" : 5123,
            "count" : 5400,
            "type" : "VEC4"
        },
        {
            "bufferView" : 22,
            "componentType" : 5126,
            "count" : 5400,
            "type" : "VEC4"
        },
        {
            "bufferView" : 23,
            "componentType" : 5126,
            "count" : 5400,
            "max" : [
                0.47037389874458313,
                0.09814566373825073,
                0.6018314361572266
            ],
            "min" : [
                -0.4322397708892822,
                -0.10055559873580933,
                -0.32379090785980225
            ],
            "type" : "VEC3"
        },
        {
            "bufferView" : 24,
            "componentType" : 5126,
            "count" : 5400,
            "type" : "VEC3"
        },
        {
            "bufferView" : 25,
            "componentType" : 5126,
            "count" : 115,
            "max" : [
                6.458333333333333
            ],
            "min" : [
                1.7083333333333333
            ],
            "type" : "SCALAR"
        },
        {
            "bufferView" : 26,
            "componentType" : 5126,
            "count" : 115,
            "type" : "SCALAR"
        }
    ],
    "bufferViews" : [
        {
            "buffer" : 0,
            "byteLength" : 1152,
            "byteOffset" : 0
        },
        {
            "buffer" : 0,
            "byteLength" : 1152,
            "byteOffset" : 1152
        },
        {
            "buffer" : 0,
            "byteLength" : 768,
            "byteOffset" : 2304
        },
        {
            "buffer" : 0,
            "byteLength" : 264,
            "byteOffset" : 3072
        },
        {
            "buffer" : 0,
            "byteLength" : 65520,
            "byteOffset" : 3336
        },
        {
            "buffer" : 0,
            "byteLength" : 65520,
            "byteOffset" : 68856
        },
        {
            "buffer" : 0,
            "byteLength" : 43680,
            "byteOffset" : 134376
        },
        {
            "buffer" : 0,
            "byteLength" : 16548,
            "byteOffset" : 178056
        },
        {
            "buffer" : 0,
            "byteLength" : 65520,
            "byteOffset" : 194604
        },
        {
            "buffer" : 0,
            "byteLength" : 65520,
            "byteOffset" : 260124
        },
        {
            "buffer" : 0,
            "byteLength" : 64800,
            "byteOffset" : 325644
        },
        {
            "buffer" : 0,
            "byteLength" : 64800,
            "byteOffset" : 390444
        },
        {
            "buffer" : 0,
            "byteLength" : 43200,
            "byteOffset" : 455244
        },
        {
            "buffer" : 0,
            "byteLength" : 43200,
            "byteOffset" : 498444
        },
        {
            "buffer" : 0,
            "byteLength" : 86400,
            "byteOffset" : 541644
        },
        {
            "buffer" : 0,
            "byteLength" : 16200,
            "byteOffset" : 628044
        },
        {
            "buffer" : 0,
            "byteLength" : 64800,
            "byteOffset" : 644244
        },
        {
            "buffer" : 0,
            "byteLength" : 64800,
            "byteOffset" : 709044
        },
        {
            "buffer" : 0,
            "byteLength" : 64800,
            "byteOffset" : 773844
        },
        {
            "buffer" : 0,
            "byteLength" : 64800,
            "byteOffset" : 838644
        },
        {
            "buffer" : 0,
            "byteLength" : 43200,
            "byteOffset" : 903444
        },
        {
            "buffer" : 0,
            "byteLength" : 43200,
            "byteOffset" : 946644
        },
        {
            "buffer" : 0,
            "byteLength" : 86400,
            "byteOffset" : 989844
        },
        {
            "buffer" : 0,
            "byteLength" : 64800,
            "byteOffset" : 1076244
        },
        {
            "buffer" : 0,
            "byteLength" : 64800,
            "byteOffset" : 1141044
        },
        {
            "buffer" : 0,
            "byteLength" : 460,
            "byteOffset" : 1205844
        },
        {
            "buffer" : 0,
            "byteLength" : 460,
            "byteOffset" : 1206304
        }
    ],
    "buffers" : [
        {
            "byteLength" : 1206764,
            "uri" : "data:application/octet-stream;base64,"
        }
    ]
}
