{
    "asset" : {
        "generator" : "Khronos glTF Blender I/O v1.1.46",
        "version" : "2.0"
    },
    "scene" : 0,
    "scenes" : [
        {
            "name" : "Scene",
            "nodes" : [
                0
            ]
        }
    ],
    "nodes" : [
        {
            "mesh" : 0,
            "name" : "Cube"
        }
    ],
    "animations" : [
        {
            "channels" : [
                {
                    "sampler" : 0,
                    "target" : {
                        "node" : 0,
                        "path" : "rotation"
                    }
                }
            ],
            "name" : "CubeAction",
            "samplers" : [
                {
                    "input" : 6,
                    "interpolation" : "LINEAR",
                    "output" : 7
                }
            ]
        },
        {
            "channels" : [
                {
                    "sampler" : 0,
                    "target" : {
                        "node" : 0,
                        "path" : "weights"
                    }
                }
            ],
            "name" : "KeyAction",
            "samplers" : [
                {
                    "input" : 8,
                    "interpolation" : "LINEAR",
                    "output" : 9
                }
            ]
        }
    ],
    "materials" : [
        {
            "doubleSided" : true,
            "emissiveFactor" : [
                0,
                0,
                0
            ],
            "name" : "Material.007",
            "pbrMetallicRoughness" : {
                "baseColorFactor" : [
                    0.008076297119259834,
                    0.008076297119259834,
                    0.008076297119259834,
                    1
                ],
                "metallicFactor" : 0,
                "roughnessFactor" : 0.5
            }
        }
    ],
    "meshes" : [
        {
            "extras" : {
                "targetNames" : [
                    "Cube.002"
                ]
            },
            "name" : "Cube.001",
            "primitives" : [
                {
                    "attributes" : {
                        "POSITION" : 0,
                        "NORMAL" : 1,
                        "TEXCOORD_0" : 2
                    },
                    "indices" : 3,
                    "material" : 0,
                    "targets" : [
                        {
                            "POSITION" : 4,
                            "NORMAL" : 5
                        }
                    ]
                }
            ],
            "weights" : [
                0
            ]
        }
    ],
    "accessors" : [
        {
            "bufferView" : 0,
            "componentType" : 5126,
            "count" : 5460,
            "max" : [
                0.8178427815437317,
                1,
                0.586232602596283
            ],
            "min" : [
                -0.8178427815437317,
                -0.4958772659301758,
                -0.5390284061431885
            ],
            "type" : "VEC3"
        },
        {
            "bufferView" : 1,
            "componentType" : 5126,
            "count" : 5460,
            "type" : "VEC3"
        },
        {
            "bufferView" : 2,
            "componentType" : 5126,
            "count" : 5460,
            "type" : "VEC2"
        },
        {
            "bufferView" : 3,
            "componentType" : 5123,
            "count" : 8274,
            "type" : "SCALAR"
        },
        {
            "bufferView" : 4,
            "componentType" : 5126,
            "count" : 5460,
            "max" : [
                0.7183786034584045,
                0.5274261236190796,
                0.3586485981941223
            ],
            "min" : [
                -0.7183787226676941,
                -0.5980114340782166,
                -0.5235463976860046
            ],
            "type" : "VEC3"
        },
        {
            "bufferView" : 5,
            "componentType" : 5126,
            "count" : 5460,
            "type" : "VEC3"
        },
        {
            "bufferView" : 6,
            "componentType" : 5126,
            "count" : 52,
            "max" : [
                3.2916666666666665
            ],
            "min" : [
                1.1666666666666667
            ],
            "type" : "SCALAR"
        },
        {
            "bufferView" : 7,
            "componentType" : 5126,
            "count" : 52,
            "type" : "VEC4"
        },
        {
            "bufferView" : 8,
            "componentType" : 5126,
            "count" : 43,
            "max" : [
                2.4583333333333335
            ],
            "min" : [
                0.7083333333333334
            ],
            "type" : "SCALAR"
        },
        {
            "bufferView" : 9,
            "componentType" : 5126,
            "count" : 43,
            "type" : "SCALAR"
        }
    ],
    "bufferViews" : [
        {
            "buffer" : 0,
            "byteLength" : 65520,
            "byteOffset" : 0
        },
        {
            "buffer" : 0,
            "byteLength" : 65520,
            "byteOffset" : 65520
        },
        {
            "buffer" : 0,
            "byteLength" : 43680,
            "byteOffset" : 131040
        },
        {
            "buffer" : 0,
            "byteLength" : 16548,
            "byteOffset" : 174720
        },
        {
            "buffer" : 0,
            "byteLength" : 65520,
            "byteOffset" : 191268
        },
        {
            "buffer" : 0,
            "byteLength" : 65520,
            "byteOffset" : 256788
        },
        {
            "buffer" : 0,
            "byteLength" : 208,
            "byteOffset" : 322308
        },
        {
            "buffer" : 0,
            "byteLength" : 832,
            "byteOffset" : 322516
        },
        {
            "buffer" : 0,
            "byteLength" : 172,
            "byteOffset" : 323348
        },
        {
            "buffer" : 0,
            "byteLength" : 172,
            "byteOffset" : 323520
        }
    ],
    "buffers" : [
        {
            "byteLength" : 323692,
            "uri" : "data:application/octet-stream;base64,"
        }
    ]
}
