{
    "asset" : {
        "generator" : "Khronos glTF Blender I/O v1.5.17",
        "version" : "2.0"
    },
    "scene" : 0,
    "scenes" : [
        {
            "name" : "Scene",
            "nodes" : [
                0
            ]
        }
    ],
    "nodes" : [
        {
            "mesh" : 0,
            "name" : "Sphere",
            "scale" : [
                1.4082509279251099,
                0.823518693447113,
                1
            ],
            "translation" : [
                0,
                -0.05419006943702698,
                0
            ]
        }
    ],
    "materials" : [
        {
            "doubleSided" : true,
            "name" : "Material.001",
            "pbrMetallicRoughness" : {
                "baseColorFactor" : [
                    0.4479828178882599,
                    0.4479828178882599,
                    0.4479828178882599,
                    1
                ],
                "roughnessFactor" : 0
            }
        },
        {
            "doubleSided" : true,
            "name" : "Material.002",
            "pbrMetallicRoughness" : {
                "baseColorFactor" : [
                    0.800000011920929,
                    0.800000011920929,
                    0.800000011920929,
                    1
                ],
                "roughnessFactor" : 0
            }
        },
        {
            "doubleSided" : true,
            "name" : "Material.003",
            "pbrMetallicRoughness" : {
                "baseColorFactor" : [
                    0.800000011920929,
                    0.800000011920929,
                    0.800000011920929,
                    1
                ],
                "roughnessFactor" : 0
            }
        }
    ],
    "meshes" : [
        {
            "name" : "Sphere",
            "primitives" : [
                {
                    "attributes" : {
                        "POSITION" : 0,
                        "NORMAL" : 1,
                        "TEXCOORD_0" : 2
                    },
                    "indices" : 3,
                    "material" : 0
                },
                {
                    "attributes" : {
                        "POSITION" : 4,
                        "NORMAL" : 5,
                        "TEXCOORD_0" : 6
                    },
                    "indices" : 7,
                    "material" : 1
                },
                {
                    "attributes" : {
                        "POSITION" : 8,
                        "NORMAL" : 9,
                        "TEXCOORD_0" : 10
                    },
                    "indices" : 11,
                    "material" : 2
                }
            ]
        }
    ],
    "accessors" : [
        {
            "bufferView" : 0,
            "componentType" : 5126,
            "count" : 10880,
            "max" : [
                0.9814595580101013,
                1,
                1.0469330549240112
            ],
            "min" : [
                -1.036749005317688,
                -6.0411176681518555,
                -1.0469335317611694
            ],
            "type" : "VEC3"
        },
        {
            "bufferView" : 1,
            "componentType" : 5126,
            "count" : 10880,
            "type" : "VEC3"
        },
        {
            "bufferView" : 2,
            "componentType" : 5126,
            "count" : 10880,
            "type" : "VEC2"
        },
        {
            "bufferView" : 3,
            "componentType" : 5123,
            "count" : 15840,
            "type" : "SCALAR"
        },
        {
            "bufferView" : 4,
            "componentType" : 5126,
            "count" : 9920,
            "max" : [
                -0.8785369396209717,
                0.24368126690387726,
                0.34098538756370544
            ],
            "min" : [
                -1.4552652835845947,
                -5.76881742477417,
                -0.34098535776138306
            ],
            "type" : "VEC3"
        },
        {
            "bufferView" : 5,
            "componentType" : 5126,
            "count" : 9920,
            "type" : "VEC3"
        },
        {
            "bufferView" : 6,
            "componentType" : 5126,
            "count" : 9920,
            "type" : "VEC2"
        },
        {
            "bufferView" : 7,
            "componentType" : 5123,
            "count" : 14400,
            "type" : "SCALAR"
        },
        {
            "bufferView" : 8,
            "componentType" : 5126,
            "count" : 39680,
            "max" : [
                0.7595352530479431,
                -0.02358122169971466,
                1.575772762298584
            ],
            "min" : [
                -0.7595352530479431,
                -5.750913143157959,
                -1.575772762298584
            ],
            "type" : "VEC3"
        },
        {
            "bufferView" : 9,
            "componentType" : 5126,
            "count" : 39680,
            "type" : "VEC3"
        },
        {
            "bufferView" : 10,
            "componentType" : 5126,
            "count" : 39680,
            "type" : "VEC2"
        },
        {
            "bufferView" : 11,
            "componentType" : 5123,
            "count" : 57600,
            "type" : "SCALAR"
        }
    ],
    "bufferViews" : [
        {
            "buffer" : 0,
            "byteLength" : 130560,
            "byteOffset" : 0
        },
        {
            "buffer" : 0,
            "byteLength" : 130560,
            "byteOffset" : 130560
        },
        {
            "buffer" : 0,
            "byteLength" : 87040,
            "byteOffset" : 261120
        },
        {
            "buffer" : 0,
            "byteLength" : 31680,
            "byteOffset" : 348160
        },
        {
            "buffer" : 0,
            "byteLength" : 119040,
            "byteOffset" : 379840
        },
        {
            "buffer" : 0,
            "byteLength" : 119040,
            "byteOffset" : 498880
        },
        {
            "buffer" : 0,
            "byteLength" : 79360,
            "byteOffset" : 617920
        },
        {
            "buffer" : 0,
            "byteLength" : 28800,
            "byteOffset" : 697280
        },
        {
            "buffer" : 0,
            "byteLength" : 476160,
            "byteOffset" : 726080
        },
        {
            "buffer" : 0,
            "byteLength" : 476160,
            "byteOffset" : 1202240
        },
        {
            "buffer" : 0,
            "byteLength" : 317440,
            "byteOffset" : 1678400
        },
        {
            "buffer" : 0,
            "byteLength" : 115200,
            "byteOffset" : 1995840
        }
    ],
    "buffers" : [
        {
            "byteLength" : 2111040,
            "uri" : "data:application/octet-stream;base64,"
        }
    ]
}
