{
    "asset" : {
        "generator" : "Khronos glTF Blender I/O v1.1.46",
        "version" : "2.0"
    },
    "scene" : 0,
    "scenes" : [
        {
            "name" : "Scene",
            "nodes" : [
                0,
                1,
                2,
                3,
                4
            ]
        }
    ],
    "nodes" : [
        {
            "mesh" : 0,
            "name" : "Sphere",
            "scale" : [
                1,
                1,
                1.5
            ]
        },
        {
            "mesh" : 1,
            "name" : "Sphere.002",
            "rotation" : [
                0,
                -0.9759972095489502,
                0,
                0.2177830934524536
            ],
            "scale" : [
                0.17901769280433655,
                0.17901769280433655,
                0.17901769280433655
            ],
            "translation" : [
                -0.08904917538166046,
                1.03066885471344,
                -0.15258589386940002
            ]
        },
        {
            "mesh" : 2,
            "name" : "Plane",
            "rotation" : [
                -0.18484166264533997,
                0,
                0,
                0.9827682971954346
            ],
            "scale" : [
                0.172806978225708,
                0.172806978225708,
                0.172806978225708
            ],
            "translation" : [
                -0.030976757407188416,
                1.6558525562286377,
                0.10013329982757568
            ]
        },
        {
            "mesh" : 3,
            "name" : "Sphere.001",
            "rotation" : [
                0,
                -0.27364984154701233,
                0,
                0.9618293642997742
            ],
            "scale" : [
                0.19707374274730682,
                0.19707371294498444,
                0.19707374274730682
            ],
            "translation" : [
                -0.08904917538166046,
                1.03066885471344,
                0.17448925971984863
            ]
        },
        {
            "mesh" : 4,
            "name" : "Plane.001",
            "rotation" : [
                -0.07792364805936813,
                0.89117032289505,
                0.1676136553287506,
                0.4143054187297821
            ],
            "scale" : [
                0.07946864515542984,
                0.07946864515542984,
                0.07946863770484924
            ],
            "translation" : [
                -0.030976757407188416,
                1.595872163772583,
                -0.05597163736820221
            ]
        }
    ],
    "materials" : [
        {
            "doubleSided" : true,
            "emissiveFactor" : [
                0,
                0,
                0
            ],
            "name" : "Material.006",
            "pbrMetallicRoughness" : {
                "baseColorFactor" : [
                    0.800000011920929,
                    0.800000011920929,
                    0.800000011920929,
                    1
                ],
                "metallicFactor" : 1,
                "roughnessFactor" : 0
            }
        },
        {
            "doubleSided" : true,
            "emissiveFactor" : [
                0,
                0,
                0
            ],
            "name" : "Material.002",
            "pbrMetallicRoughness" : {
                "baseColorFactor" : [
                    0.8000000715255737,
                    0,
                    0.007476309780031443,
                    1
                ],
                "metallicFactor" : 0.3076923191547394,
                "roughnessFactor" : 0
            }
        },
        {
            "doubleSided" : true,
            "emissiveFactor" : [
                0,
                0,
                0
            ],
            "name" : "Material.003",
            "pbrMetallicRoughness" : {
                "baseColorFactor" : [
                    0.03207453340291977,
                    0.0103901457041502,
                    0.0056177242659032345,
                    1
                ],
                "metallicFactor" : 1,
                "roughnessFactor" : 0.24358972907066345
            }
        },
        {
            "doubleSided" : true,
            "emissiveFactor" : [
                0,
                0,
                0
            ],
            "name" : "Material.004",
            "pbrMetallicRoughness" : {
                "baseColorFactor" : [
                    0.0029938064981251955,
                    0.057804174721241,
                    0.0016769126523286104,
                    1
                ],
                "metallicFactor" : 0.8589743375778198,
                "roughnessFactor" : 0
            }
        },
        {
            "doubleSided" : true,
            "emissiveFactor" : [
                0,
                0,
                0
            ],
            "name" : "Material.005",
            "pbrMetallicRoughness" : {
                "baseColorFactor" : [
                    0.0029938064981251955,
                    0.057804174721241,
                    0.0016769126523286104,
                    1
                ],
                "metallicFactor" : 0.8589743375778198,
                "roughnessFactor" : 0
            }
        }
    ],
    "meshes" : [
        {
            "name" : "Sphere",
            "primitives" : [
                {
                    "attributes" : {
                        "POSITION" : 0,
                        "NORMAL" : 1,
                        "TEXCOORD_0" : 2
                    },
                    "indices" : 3,
                    "material" : 0
                }
            ]
        },
        {
            "name" : "Sphere.002",
            "primitives" : [
                {
                    "attributes" : {
                        "POSITION" : 4,
                        "NORMAL" : 5,
                        "TEXCOORD_0" : 6
                    },
                    "indices" : 7,
                    "material" : 1
                },
                {
                    "attributes" : {
                        "POSITION" : 8,
                        "NORMAL" : 9,
                        "TEXCOORD_0" : 10
                    },
                    "indices" : 11,
                    "material" : 2
                }
            ]
        },
        {
            "name" : "Plane",
            "primitives" : [
                {
                    "attributes" : {
                        "POSITION" : 12,
                        "NORMAL" : 13,
                        "TEXCOORD_0" : 14
                    },
                    "indices" : 15,
                    "material" : 3
                }
            ]
        },
        {
            "name" : "Sphere.003",
            "primitives" : [
                {
                    "attributes" : {
                        "POSITION" : 16,
                        "NORMAL" : 17,
                        "TEXCOORD_0" : 18
                    },
                    "indices" : 7,
                    "material" : 1
                },
                {
                    "attributes" : {
                        "POSITION" : 19,
                        "NORMAL" : 20,
                        "TEXCOORD_0" : 21
                    },
                    "indices" : 22,
                    "material" : 2
                }
            ]
        },
        {
            "name" : "Plane.002",
            "primitives" : [
                {
                    "attributes" : {
                        "POSITION" : 23,
                        "NORMAL" : 24,
                        "TEXCOORD_0" : 25
                    },
                    "indices" : 15,
                    "material" : 4
                }
            ]
        }
    ],
    "accessors" : [
        {
            "bufferView" : 0,
            "componentType" : 5126,
            "count" : 5356,
            "max" : [
                1.197519063949585,
                0.8864701986312866,
                0.9999998211860657
            ],
            "min" : [
                -1.197519063949585,
                -0.584363579750061,
                -1.436680793762207
            ],
            "type" : "VEC3"
        },
        {
            "bufferView" : 1,
            "componentType" : 5126,
            "count" : 5356,
            "type" : "VEC3"
        },
        {
            "bufferView" : 2,
            "componentType" : 5126,
            "count" : 5356,
            "type" : "VEC2"
        },
        {
            "bufferView" : 3,
            "componentType" : 5123,
            "count" : 7776,
            "type" : "SCALAR"
        },
        {
            "bufferView" : 4,
            "componentType" : 5126,
            "count" : 591,
            "max" : [
                1.034285068511963,
                0.7438148856163025,
                1.034285068511963
            ],
            "min" : [
                -1.0342845916748047,
                -1,
                -1.0342849493026733
            ],
            "type" : "VEC3"
        },
        {
            "bufferView" : 5,
            "componentType" : 5126,
            "count" : 591,
            "type" : "VEC3"
        },
        {
            "bufferView" : 6,
            "componentType" : 5126,
            "count" : 591,
            "type" : "VEC2"
        },
        {
            "bufferView" : 7,
            "componentType" : 5123,
            "count" : 2970,
            "type" : "SCALAR"
        },
        {
            "bufferView" : 8,
            "componentType" : 5126,
            "count" : 428,
            "max" : [
                0.10220444202423096,
                2.8142378330230713,
                0.14301034808158875
            ],
            "min" : [
                -0.1282855123281479,
                0.4427121877670288,
                -0.901971161365509
            ],
            "type" : "VEC3"
        },
        {
            "bufferView" : 9,
            "componentType" : 5126,
            "count" : 428,
            "type" : "VEC3"
        },
        {
            "bufferView" : 10,
            "componentType" : 5126,
            "count" : 428,
            "type" : "VEC2"
        },
        {
            "bufferView" : 11,
            "componentType" : 5123,
            "count" : 2202,
            "type" : "SCALAR"
        },
        {
            "bufferView" : 12,
            "componentType" : 5126,
            "count" : 193,
            "max" : [
                0.6825963258743286,
                0.08077970892190933,
                1.667132019996643
            ],
            "min" : [
                -0.6825999617576599,
                -0.38455280661582947,
                -1.0075253248214722
            ],
            "type" : "VEC3"
        },
        {
            "bufferView" : 13,
            "componentType" : 5126,
            "count" : 193,
            "type" : "VEC3"
        },
        {
            "bufferView" : 14,
            "componentType" : 5126,
            "count" : 193,
            "type" : "VEC2"
        },
        {
            "bufferView" : 15,
            "componentType" : 5123,
            "count" : 960,
            "type" : "SCALAR"
        },
        {
            "bufferView" : 16,
            "componentType" : 5126,
            "count" : 591,
            "max" : [
                1.034285068511963,
                0.7438148856163025,
                1.034285068511963
            ],
            "min" : [
                -1.0342845916748047,
                -1,
                -1.0342849493026733
            ],
            "type" : "VEC3"
        },
        {
            "bufferView" : 17,
            "componentType" : 5126,
            "count" : 591,
            "type" : "VEC3"
        },
        {
            "bufferView" : 18,
            "componentType" : 5126,
            "count" : 591,
            "type" : "VEC2"
        },
        {
            "bufferView" : 19,
            "componentType" : 5126,
            "count" : 428,
            "max" : [
                0.10220444202423096,
                2.8142378330230713,
                0.14301034808158875
            ],
            "min" : [
                -0.3393188714981079,
                0.4427121877670288,
                -1.0576820373535156
            ],
            "type" : "VEC3"
        },
        {
            "bufferView" : 20,
            "componentType" : 5126,
            "count" : 428,
            "type" : "VEC3"
        },
        {
            "bufferView" : 21,
            "componentType" : 5126,
            "count" : 428,
            "type" : "VEC2"
        },
        {
            "bufferView" : 22,
            "componentType" : 5123,
            "count" : 2202,
            "type" : "SCALAR"
        },
        {
            "bufferView" : 23,
            "componentType" : 5126,
            "count" : 193,
            "max" : [
                0.6825963258743286,
                0.08077970892190933,
                1.667132019996643
            ],
            "min" : [
                -0.6825999617576599,
                -0.38455280661582947,
                -1.0075253248214722
            ],
            "type" : "VEC3"
        },
        {
            "bufferView" : 24,
            "componentType" : 5126,
            "count" : 193,
            "type" : "VEC3"
        },
        {
            "bufferView" : 25,
            "componentType" : 5126,
            "count" : 193,
            "type" : "VEC2"
        }
    ],
    "bufferViews" : [
        {
            "buffer" : 0,
            "byteLength" : 64272,
            "byteOffset" : 0
        },
        {
            "buffer" : 0,
            "byteLength" : 64272,
            "byteOffset" : 64272
        },
        {
            "buffer" : 0,
            "byteLength" : 42848,
            "byteOffset" : 128544
        },
        {
            "buffer" : 0,
            "byteLength" : 15552,
            "byteOffset" : 171392
        },
        {
            "buffer" : 0,
            "byteLength" : 7092,
            "byteOffset" : 186944
        },
        {
            "buffer" : 0,
            "byteLength" : 7092,
            "byteOffset" : 194036
        },
        {
            "buffer" : 0,
            "byteLength" : 4728,
            "byteOffset" : 201128
        },
        {
            "buffer" : 0,
            "byteLength" : 5940,
            "byteOffset" : 205856
        },
        {
            "buffer" : 0,
            "byteLength" : 5136,
            "byteOffset" : 211796
        },
        {
            "buffer" : 0,
            "byteLength" : 5136,
            "byteOffset" : 216932
        },
        {
            "buffer" : 0,
            "byteLength" : 3424,
            "byteOffset" : 222068
        },
        {
            "buffer" : 0,
            "byteLength" : 4404,
            "byteOffset" : 225492
        },
        {
            "buffer" : 0,
            "byteLength" : 2316,
            "byteOffset" : 229896
        },
        {
            "buffer" : 0,
            "byteLength" : 2316,
            "byteOffset" : 232212
        },
        {
            "buffer" : 0,
            "byteLength" : 1544,
            "byteOffset" : 234528
        },
        {
            "buffer" : 0,
            "byteLength" : 1920,
            "byteOffset" : 236072
        },
        {
            "buffer" : 0,
            "byteLength" : 7092,
            "byteOffset" : 237992
        },
        {
            "buffer" : 0,
            "byteLength" : 7092,
            "byteOffset" : 245084
        },
        {
            "buffer" : 0,
            "byteLength" : 4728,
            "byteOffset" : 252176
        },
        {
            "buffer" : 0,
            "byteLength" : 5136,
            "byteOffset" : 256904
        },
        {
            "buffer" : 0,
            "byteLength" : 5136,
            "byteOffset" : 262040
        },
        {
            "buffer" : 0,
            "byteLength" : 3424,
            "byteOffset" : 267176
        },
        {
            "buffer" : 0,
            "byteLength" : 4404,
            "byteOffset" : 270600
        },
        {
            "buffer" : 0,
            "byteLength" : 2316,
            "byteOffset" : 275004
        },
        {
            "buffer" : 0,
            "byteLength" : 2316,
            "byteOffset" : 277320
        },
        {
            "buffer" : 0,
            "byteLength" : 1544,
            "byteOffset" : 279636
        }
    ],
    "buffers" : [
        {
            "byteLength" : 281180,
            "uri" : "data:application/octet-stream;base64,"
        }
    ]
}
