{
    "asset" : {
        "generator" : "Khronos glTF Blender I/O v1.1.46",
        "version" : "2.0"
    },
    "scene" : 0,
    "scenes" : [
        {
            "name" : "Scene",
            "nodes" : [
                0
            ]
        }
    ],
    "nodes" : [
        {
            "mesh" : 0,
            "name" : "turtle",
            "rotation" : [
                0.7071067690849304,
                0,
                0,
                0.7071067690849304
            ],
            "scale" : [
                0.31292951107025146,
                0.4676651358604431,
                0.31292951107025146
            ],
            "translation" : [
                0,
                -0.08715727925300598,
                1.605196237564087
            ]
        }
    ],
    "meshes" : [
        {
            "name" : "Sphere.003",
            "primitives" : [
                {
                    "attributes" : {
                        "POSITION" : 0,
                        "NORMAL" : 1,
                        "TEXCOORD_0" : 2
                    },
                    "indices" : 3
                }
            ]
        }
    ],
    "accessors" : [
        {
            "bufferView" : 0,
            "componentType" : 5126,
            "count" : 76128,
            "max" : [
                3.923687696456909,
                1,
                26.4566593170166
            ],
            "min" : [
                -3.9236879348754883,
                -6.385770797729492,
                -3.474128246307373
            ],
            "type" : "VEC3"
        },
        {
            "bufferView" : 1,
            "componentType" : 5126,
            "count" : 76128,
            "type" : "VEC3"
        },
        {
            "bufferView" : 2,
            "componentType" : 5126,
            "count" : 76128,
            "type" : "VEC2"
        },
        {
            "bufferView" : 3,
            "componentType" : 5125,
            "count" : 109152,
            "type" : "SCALAR"
        }
    ],
    "bufferViews" : [
        {
            "buffer" : 0,
            "byteLength" : 913536,
            "byteOffset" : 0
        },
        {
            "buffer" : 0,
            "byteLength" : 913536,
            "byteOffset" : 913536
        },
        {
            "buffer" : 0,
            "byteLength" : 609024,
            "byteOffset" : 1827072
        },
        {
            "buffer" : 0,
            "byteLength" : 436608,
            "byteOffset" : 2436096
        }
    ],
    "buffers" : [
        {
            "byteLength" : 2872704,
            "uri" : "data:application/octet-stream;base64,"
        }
    ]
}
