{
    "asset" : {
        "generator" : "Khronos glTF Blender I/O v1.5.17",
        "version" : "2.0"
    },
    "scene" : 0,
    "scenes" : [
        {
            "name" : "Scene",
            "nodes" : [
                0
            ]
        }
    ],
    "nodes" : [
        {
            "mesh" : 0,
            "name" : "Sphere",
            "scale" : [
                1.4082509279251099,
                0.823518693447113,
                1
            ],
            "translation" : [
                0,
                -0.05419006943702698,
                0
            ]
        }
    ],
    "materials" : [
        {
            "doubleSided" : true,
            "name" : "Material.001",
            "pbrMetallicRoughness" : {
                "baseColorFactor" : [
                    0.4479828178882599,
                    0.4479828178882599,
                    0.4479828178882599,
                    1
                ],
                "roughnessFactor" : 0
            }
        }
    ],
    "meshes" : [
        {
            "name" : "Sphere",
            "primitives" : [
                {
                    "attributes" : {
                        "POSITION" : 0,
                        "NORMAL" : 1,
                        "TEXCOORD_0" : 2
                    },
                    "indices" : 3,
                    "material" : 0
                }
            ]
        }
    ],
    "accessors" : [
        {
            "bufferView" : 0,
            "componentType" : 5126,
            "count" : 72576,
            "max" : [
                0.9814595580101013,
                1,
                1.575772762298584
            ],
            "min" : [
                -1.4552652835845947,
                -7.3822832107543945,
                -1.575772762298584
            ],
            "type" : "VEC3"
        },
        {
            "bufferView" : 1,
            "componentType" : 5126,
            "count" : 72576,
            "type" : "VEC3"
        },
        {
            "bufferView" : 2,
            "componentType" : 5126,
            "count" : 72576,
            "type" : "VEC2"
        },
        {
            "bufferView" : 3,
            "componentType" : 5125,
            "count" : 105408,
            "type" : "SCALAR"
        }
    ],
    "bufferViews" : [
        {
            "buffer" : 0,
            "byteLength" : 870912,
            "byteOffset" : 0
        },
        {
            "buffer" : 0,
            "byteLength" : 870912,
            "byteOffset" : 870912
        },
        {
            "buffer" : 0,
            "byteLength" : 580608,
            "byteOffset" : 1741824
        },
        {
            "buffer" : 0,
            "byteLength" : 421632,
            "byteOffset" : 2322432
        }
    ],
    "buffers" : [
        {
            "byteLength" : 2744064,
            "uri" : "data:application/octet-stream;base64,"
        }
    ]
}
